#N canvas 142 23 1298 778 10;
#X obj 58 552 *~;
#X obj 58 594 cos~;
#X obj 264 330 *~;
#X obj 319 268 mtof;
#X obj 320 334 *~;
#X text 350 334 divide by fundamental;
#X obj 19 408 phasor~;
#X obj 383 443 +~ 0.5;
#X obj 383 468 wrap~;
#X text 374 421 second phase signal;
#X obj 58 615 +~ 1;
#X obj 18 488 -~ 0.5;
#X obj 75 658 +~;
#X obj 17 552 *~;
#X obj 17 573 cos~;
#X obj 123 521 samphold~;
#X obj 52 521 samphold~;
#X obj 17 594 *~;
#X obj 58 573 clip~ -0.5 0.5;
#X obj 274 569 *~;
#X obj 274 611 cos~;
#X obj 274 632 +~ 1;
#X obj 220 489 -~ 0.5;
#X obj 221 569 *~;
#X obj 221 590 cos~;
#X obj 339 538 samphold~;
#X obj 268 538 samphold~;
#X obj 221 611 *~;
#X obj 274 590 clip~ -0.5 0.5;
#X obj 320 358 max~ 1;
#X obj 64 48 r \$1;
#X obj 63 122 mtof;
#X obj 67 168 line~;
#X obj 136 89 r \$4;
#X obj 240 170 r \$3;
#X obj 136 249 +~;
#X obj 95 249 *~;
#X obj 136 134 sig~;
#X obj 168 224 sig~;
#X obj 136 224 *~;
#X obj 168 249 sig~ 1;
#X obj 169 276 /~;
#X obj 706 191 mtof;
#X obj 676 168 0;
#X obj 540 96 line~;
#X obj 604 300 line~;
#X obj 676 144 sel 0;
#X obj 632 144 t b f;
#X obj 609 278 pack 0 0;
#X obj 565 192 route 0 1;
#X obj 565 169 pack 0 0;
#X obj 565 145 > 0;
#X obj 565 123 snapshot~;
#X msg 565 470 reset;
#X obj 673 277 line 0 30;
#X obj 319 245 r \$9;
#X obj 540 46 r \$5;
#X obj 632 119 r \$7;
#X obj 673 252 r \$8;
#X text 596 746 sum bus;
#X obj 544 745 outlet~;
#X obj 525 641 *~;
#X text 608 14 WAVE PACKET BASED REPLACEMENT FOR PAF;
#X text 128 25 hack to allow glissandi which aren't implemented in
the controller window.;
#X obj 631 522 hilbert~;
#X obj 631 571 complex-mod~;
#X obj 726 513 osc~;
#X obj 744 364 r \$2;
#X obj 769 512 > 0;
#X obj 769 536 pack 0 10;
#X obj 769 560 line~;
#X obj 568 679 -~;
#X obj 567 704 *~;
#X obj 538 702 +~;
#X obj 677 449 0;
#X obj 677 425 sel 0;
#X obj 708 472 mtof;
#X obj 708 450 - 60;
#X obj 742 395 t f;
#X obj 29 142 pack 0 10;
#X obj 339 103 pack 0 10;
#X text 537 16 amp;
#X text 662 117 cf;
#X text 320 223 bandwidth;
#X text 242 152 vib depth;
#X text 135 72 vib freq;
#X text 64 30 pitch;
#X text 744 347 freqshift;
#X text 674 232 cf gliss time;
#X obj 150 -18 route freq vfr vib bw amp cf shift phase cfgliss;
#X obj 146 -46 inlet;
#X obj 166 169 osc~;
#X obj 282 197 / 512;
#X obj 175 113 / 80;
#X obj 136 112 / 1;
#X obj 369 292 * 1.6;
#X obj 322 291 * 1.6;
#X obj 240 198 / 512;
#X text 824 97 linedrive 154 0.02 1.06 30;
#X text 797 77 used to be;
#X connect 0 0 18 0;
#X connect 1 0 10 0;
#X connect 2 0 16 0;
#X connect 2 0 26 0;
#X connect 3 0 96 0;
#X connect 4 0 29 0;
#X connect 6 0 7 0;
#X connect 6 0 11 0;
#X connect 6 0 16 1;
#X connect 6 0 15 1;
#X connect 7 0 8 0;
#X connect 8 0 22 0;
#X connect 8 0 26 1;
#X connect 8 0 25 1;
#X connect 10 0 17 1;
#X connect 11 0 0 0;
#X connect 11 0 13 0;
#X connect 12 0 61 0;
#X connect 13 0 14 0;
#X connect 14 0 17 0;
#X connect 15 0 0 1;
#X connect 16 0 13 1;
#X connect 17 0 12 0;
#X connect 18 0 1 0;
#X connect 19 0 28 0;
#X connect 20 0 21 0;
#X connect 21 0 27 1;
#X connect 22 0 19 0;
#X connect 22 0 23 0;
#X connect 23 0 24 0;
#X connect 24 0 27 0;
#X connect 25 0 19 1;
#X connect 26 0 23 1;
#X connect 27 0 12 1;
#X connect 28 0 20 0;
#X connect 29 0 15 0;
#X connect 29 0 25 0;
#X connect 31 0 79 0;
#X connect 32 0 36 0;
#X connect 33 0 94 0;
#X connect 34 0 97 0;
#X connect 35 0 36 1;
#X connect 36 0 41 1;
#X connect 36 0 6 0;
#X connect 37 0 91 0;
#X connect 38 0 39 1;
#X connect 39 0 35 0;
#X connect 40 0 41 0;
#X connect 40 0 35 1;
#X connect 41 0 2 1;
#X connect 41 0 4 1;
#X connect 42 0 50 1;
#X connect 43 0 50 1;
#X connect 44 0 52 0;
#X connect 44 0 61 1;
#X connect 45 0 2 0;
#X connect 46 0 43 0;
#X connect 46 1 42 0;
#X connect 47 0 52 0;
#X connect 47 1 46 0;
#X connect 48 0 45 0;
#X connect 49 0 45 0;
#X connect 49 0 53 0;
#X connect 49 1 48 0;
#X connect 50 0 49 0;
#X connect 51 0 50 0;
#X connect 52 0 51 0;
#X connect 53 0 25 0;
#X connect 53 0 26 0;
#X connect 53 0 15 0;
#X connect 53 0 16 0;
#X connect 54 0 48 1;
#X connect 55 0 3 0;
#X connect 56 0 44 0;
#X connect 57 0 47 0;
#X connect 58 0 54 0;
#X connect 61 0 64 0;
#X connect 61 0 71 1;
#X connect 61 0 73 0;
#X connect 64 0 65 0;
#X connect 64 1 65 1;
#X connect 65 0 71 0;
#X connect 66 0 65 2;
#X connect 67 0 78 0;
#X connect 68 0 69 0;
#X connect 69 0 70 0;
#X connect 70 0 72 1;
#X connect 71 0 72 0;
#X connect 72 0 73 1;
#X connect 73 0 60 0;
#X connect 74 0 66 0;
#X connect 75 0 74 0;
#X connect 75 1 77 0;
#X connect 76 0 66 0;
#X connect 77 0 76 0;
#X connect 78 0 75 0;
#X connect 78 0 68 0;
#X connect 79 0 32 0;
#X connect 80 0 44 0;
#X connect 89 0 31 0;
#X connect 89 1 94 0;
#X connect 89 2 97 0;
#X connect 89 3 3 0;
#X connect 89 4 80 0;
#X connect 89 5 47 0;
#X connect 89 6 78 0;
#X connect 89 8 54 1;
#X connect 90 0 89 0;
#X connect 91 0 39 0;
#X connect 94 0 37 0;
#X connect 96 0 4 0;
#X connect 97 0 38 0;
