#N canvas 121 116 923 586 10;
#X obj 132 72 inlet;
#X obj 179 72 inlet;
#X obj 226 72 inlet;
#X obj 276 73 inlet;
#X obj 418 86 inlet;
#X obj 176 196 + 1;
#X obj 406 215 sel 0 1 2;
#X msg 394 266 1;
#X msg 430 267 -1;
#X floatatom 60 296 5 0 0 0 - - -, f 5;
#X obj 92 121 bng 15 250 50 0 empty empty empty 17 7 0 10 -262144 -1
-1;
#X floatatom 413 125 5 0 0 0 - - -, f 5;
#X floatatom 185 123 5 0 0 0 - - -, f 5;
#X obj 134 453 outlet;
#X obj 191 453 outlet;
#X obj 260 452 outlet;
#X obj 317 452 outlet;
#X obj 130 254 % \$2;
#X obj 132 167 int 0;
#X obj 236 121 - \$1;
#X obj 288 122 - \$1;
#X obj 131 309 + \$1;
#X obj 279 326 == \$2;
#X obj 281 374 sel 1;
#X obj 190 379 sel 1;
#X obj 188 347 == \$1;
#X connect 0 0 10 0;
#X connect 1 0 12 0;
#X connect 2 0 19 0;
#X connect 3 0 20 0;
#X connect 4 0 11 0;
#X connect 5 0 18 1;
#X connect 6 0 7 0;
#X connect 6 1 8 0;
#X connect 7 0 5 1;
#X connect 8 0 5 1;
#X connect 10 0 18 0;
#X connect 11 0 17 1;
#X connect 12 0 6 0;
#X connect 17 0 5 0;
#X connect 17 0 9 0;
#X connect 17 0 21 0;
#X connect 18 0 17 0;
#X connect 19 0 18 1;
#X connect 20 0 18 1;
#X connect 20 0 21 0;
#X connect 21 0 13 0;
#X connect 21 0 22 0;
#X connect 21 0 25 0;
#X connect 22 0 23 0;
#X connect 23 0 15 0;
#X connect 24 0 14 0;
#X connect 25 0 24 0;
