#N canvas 0 22 751 721 10;
#X obj 348 51 inlet;
#X obj 230 569 *~;
#X obj 274 564 *~;
#X obj 344 300 osc~ 1;
#X obj 211 694 outlet~;
#X obj 300 701 outlet~;
#X obj 521 95 inlet;
#X obj 454 248 line~;
#X msg 458 215 \$1 20;
#X obj 211 301 *~;
#X obj 334 237 line~;
#X msg 338 204 \$1 20;
#X obj 216 46 inlet~;
#X obj 344 359 *~ 0.5;
#X obj 345 398 +~ 0.5;
#X obj 446 505 -~;
#X obj 442 445 sig~ 1;
#X obj 407 115 f \$1;
#X obj 401 161 route 0;
#X obj 417 60 loadbang;
#X msg 403 206 1;
#X obj 587 146 f \$1;
#X obj 581 192 route 0;
#X msg 583 237 1;
#X connect 0 0 11 0;
#X connect 1 0 4 0;
#X connect 2 0 5 0;
#X connect 3 0 13 0;
#X connect 6 0 8 0;
#X connect 7 0 9 1;
#X connect 8 0 7 0;
#X connect 9 0 2 0;
#X connect 9 0 1 0;
#X connect 10 0 3 0;
#X connect 11 0 10 0;
#X connect 12 0 9 0;
#X connect 13 0 14 0;
#X connect 14 0 15 1;
#X connect 14 0 1 1;
#X connect 15 0 2 1;
#X connect 16 0 15 0;
#X connect 17 0 18 0;
#X connect 18 0 20 0;
#X connect 18 1 11 0;
#X connect 19 0 17 0;
#X connect 19 0 21 0;
#X connect 20 0 11 0;
#X connect 21 0 22 0;
#X connect 22 0 23 0;
#X connect 22 1 8 0;
#X connect 23 0 8 0;
