#N canvas 0 23 806 644 10;
#X floatatom 38 182 0 0 0 0 - - -;
#X obj 101 453 *~;
#X obj 224 390 line~;
#X text 87 74 PITCH SHIFTER;
#X obj 224 364 pack 0 200;
#X obj 38 238 exp;
#X floatatom 38 264 6 0 0 0 - - -, f 6;
#X obj 38 354 /;
#X obj 165 284 * 0.001;
#X obj 333 460 line~;
#X obj 333 435 pack 0 200;
#X obj 101 479 +~;
#X obj 38 505 cos~;
#X obj 38 532 *~;
#X obj 38 561 +~;
#X obj 125 412 wrap~;
#X obj 270 455 *~;
#X obj 270 488 +~;
#X obj 207 515 cos~;
#X obj 207 542 *~;
#X obj 165 311 t b f;
#X floatatom 38 380 6 0 0 0 - - -, f 6;
#X obj 125 385 +~ 0.5;
#X obj 38 453 -~ 0.5;
#X obj 38 479 *~ 0.5;
#X obj 207 454 -~ 0.5;
#X obj 207 487 *~ 0.5;
#X obj 38 291 - 1;
#X obj 38 212 * 0.05776;
#X obj 38 317 * -1;
#X text 66 181 <-- transposition;
#X text 109 194 (halftones);
#X text 101 258 speed;
#X text 100 272 change;
#X text 288 199 <--window (msec);
#X text 73 347 tape head;
#X obj 38 411 phasor~;
#X obj 333 411 max 1.5;
#X text 374 356 delay;
#X text 371 374 (msec);
#X obj 256 234 max 1;
#X text 74 360 rotation freq;
#X obj 40 47 inlet~;
#X obj 40 97 delwrite~ \$0delay 5000;
#X obj 38 596 outlet~;
#X obj 511 72 loadbang;
#X obj 259 109 route transpose window delay;
#X obj 303 25 inlet;
#X floatatom 334 372 5 0 0 0 - - -, f 5;
#X floatatom 257 199 5 0 0 0 - - -, f 5;
#X obj 101 505 vd~ \$0delay;
#X obj 270 517 vd~ \$0delay;
#X msg 511 151 transpose 0;
#X msg 675 150 delay 0;
#X msg 594 150 window 100;
#X connect 0 0 28 0;
#X connect 1 0 11 0;
#X connect 2 0 1 1;
#X connect 2 0 16 1;
#X connect 4 0 2 0;
#X connect 5 0 6 0;
#X connect 6 0 27 0;
#X connect 7 0 21 0;
#X connect 8 0 20 0;
#X connect 9 0 11 1;
#X connect 9 0 17 1;
#X connect 10 0 9 0;
#X connect 11 0 50 0;
#X connect 12 0 13 0;
#X connect 13 0 14 0;
#X connect 14 0 44 0;
#X connect 15 0 16 0;
#X connect 15 0 25 0;
#X connect 16 0 17 0;
#X connect 17 0 51 0;
#X connect 18 0 19 0;
#X connect 19 0 14 1;
#X connect 20 0 7 0;
#X connect 20 1 7 1;
#X connect 21 0 36 0;
#X connect 22 0 15 0;
#X connect 23 0 24 0;
#X connect 24 0 12 0;
#X connect 25 0 26 0;
#X connect 26 0 18 0;
#X connect 27 0 29 0;
#X connect 28 0 5 0;
#X connect 29 0 7 0;
#X connect 36 0 1 0;
#X connect 36 0 23 0;
#X connect 36 0 22 0;
#X connect 37 0 10 0;
#X connect 40 0 8 0;
#X connect 40 0 4 0;
#X connect 42 0 43 0;
#X connect 45 0 52 0;
#X connect 45 0 54 0;
#X connect 45 0 53 0;
#X connect 46 0 0 0;
#X connect 46 1 49 0;
#X connect 46 2 48 0;
#X connect 47 0 46 0;
#X connect 48 0 37 0;
#X connect 49 0 40 0;
#X connect 50 0 13 1;
#X connect 51 0 19 1;
#X connect 52 0 46 0;
#X connect 53 0 46 0;
#X connect 54 0 46 0;
