#N canvas 144 106 1205 624 10;
#X obj 75 23 tickler.in;
#X obj 279 583 dac~;
#X obj 715 36 tgl 15 0 empty empty record 17 7 0 10 -262144 -1 -1 0
1;
#N canvas 225 154 1015 521 router 0;
#X obj 104 22 inlet;
#X obj 108 139 spigot;
#X obj 333 143 spigot;
#X obj 365 37 inlet;
#X msg 361 79 1;
#X msg 395 80 0;
#X obj 110 213 sel 1 0;
#X msg 63 318 0 record 1;
#X obj 166 271 t b b;
#X msg 159 317 0 record 0;
#X obj 373 473 outlet;
#X msg 258 252 0;
#X msg 292 247 1;
#X obj 389 204 sel 1 0;
#X obj 494 334 ali.counter 1 4;
#X obj 374 394 list prepend;
#X msg 330 319 record 1;
#X obj 341 276 t b b;
#X msg 400 319 record 0;
#X msg 434 81 1;
#X obj 147 88 t f f;
#X obj 750 33 inlet;
#X msg 752 194 sync 1 \, autosize 0 \, overdub 1;
#X obj 860 119 ali.uzi 4;
#X obj 714 359 list prepend;
#X obj 749 406 route list;
#X msg 566 189 play 0 \, clear;
#X obj 623 125 ali.uzi 4;
#X connect 0 0 20 0;
#X connect 1 0 6 0;
#X connect 2 0 13 0;
#X connect 3 0 4 0;
#X connect 3 0 5 0;
#X connect 3 0 19 0;
#X connect 3 0 27 0;
#X connect 4 0 1 1;
#X connect 5 0 2 1;
#X connect 6 0 7 0;
#X connect 6 1 8 0;
#X connect 7 0 10 0;
#X connect 8 0 9 0;
#X connect 8 1 11 0;
#X connect 8 1 12 0;
#X connect 9 0 10 0;
#X connect 11 0 1 1;
#X connect 12 0 2 1;
#X connect 13 0 17 0;
#X connect 13 1 18 0;
#X connect 14 0 15 1;
#X connect 15 0 10 0;
#X connect 16 0 15 0;
#X connect 17 0 16 0;
#X connect 17 1 14 0;
#X connect 18 0 15 0;
#X connect 19 0 14 2;
#X connect 20 0 1 0;
#X connect 20 1 2 0;
#X connect 21 0 23 0;
#X connect 22 0 24 0;
#X connect 23 0 22 0;
#X connect 23 2 24 1;
#X connect 24 0 25 0;
#X connect 25 0 10 0;
#X connect 26 0 24 0;
#X connect 27 0 26 0;
#X connect 27 2 24 1;
#X restore 716 70 pd router;
#X obj 782 37 bng 15 250 50 0 empty empty reset 17 7 0 10 -262144 -1
-1;
#X obj 716 99 route 0 1 2 3 4;
#X obj 841 291 ali.loop-pedal sound4;
#X obj 75 229 send~ ali.loop-pedal-audio;
#X obj 404 291 ali.loop-pedal sound1;
#X obj 404 20 ali.loop-pedal sound0;
#X obj 551 291 ali.loop-pedal sound2;
#X obj 696 291 ali.loop-pedal sound3;
#X obj 470 234 send~ ali.loop-pedal-sync;
#X obj 849 39 bng 15 250 50 0 empty empty init 17 7 0 10 -262144 -1
-1;
#X connect 0 0 7 0;
#X connect 2 0 3 0;
#X connect 3 0 5 0;
#X connect 4 0 3 1;
#X connect 5 0 9 2;
#X connect 5 1 8 2;
#X connect 5 2 10 2;
#X connect 5 3 11 2;
#X connect 5 4 6 2;
#X connect 6 0 1 0;
#X connect 6 0 1 1;
#X connect 8 0 1 0;
#X connect 8 0 1 1;
#X connect 9 0 1 0;
#X connect 9 0 1 1;
#X connect 9 1 12 0;
#X connect 9 2 6 2;
#X connect 9 2 8 2;
#X connect 9 2 10 2;
#X connect 9 2 11 2;
#X connect 10 0 1 0;
#X connect 10 0 1 1;
#X connect 11 0 1 0;
#X connect 11 0 1 1;
#X connect 13 0 3 2;
