#N canvas 150 23 1290 778 10;
#X msg 407 143 set \$1;
#X obj 407 237 vsl 15 128 0 127 0 0 empty empty \$3 0 -9 0 10 -262144
-1 -1 0 1;
#X msg 519 510 put \$2 \$1;
#X obj 407 562 outlet;
#X obj 702 60 inlet;
#X obj 519 399 ali.scale 0 127 \$4 \$5;
#X obj 408 112 ali.scale \$4 \$5 0 127;
#X floatatom 406 379 5 0 0 0 - - -, f 5;
#X obj 519 473 pack 1 \$2;
#X obj 324 31 r \$3;
#X obj 324 67 ali.scale 0 1 \$4 \$5;
#X obj 690 468 ali.scale \$4 \$5 0 1;
#X obj 690 564 send toGUI;
#X obj 690 533 list prepend /\$3 set;
#X obj 376 32 r \$3-scaled;
#X text 889 361 arg4: scale to min (def 0);
#X text 891 385 arg5: scale to max (def 127);
#X text 887 312 arg2: number of this param (starts with 0;
#X text 889 337 arg3: display name of this param (eg "freq");
#X text 886 284 arg1: name of pbank namespace;
#X obj 196 70 receive \$1-\$2;
#X obj 519 560 s \$1-pbank;
#X connect 0 0 1 0;
#X connect 1 0 5 0;
#X connect 2 0 21 0;
#X connect 4 0 6 0;
#X connect 4 0 7 0;
#X connect 4 0 8 0;
#X connect 4 0 11 0;
#X connect 5 0 7 0;
#X connect 5 0 8 0;
#X connect 5 0 11 0;
#X connect 6 0 0 0;
#X connect 7 0 3 0;
#X connect 8 0 2 0;
#X connect 9 0 10 0;
#X connect 10 0 7 0;
#X connect 10 0 6 0;
#X connect 10 0 8 0;
#X connect 11 0 13 0;
#X connect 13 0 12 0;
#X connect 14 0 7 0;
#X connect 14 0 8 0;
#X connect 14 0 6 0;
#X connect 20 0 6 0;
#X connect 20 0 11 0;
#X connect 20 0 7 0;
#X coords 0 -1 1 1 50 200 1 395 205;
