#N canvas 0 22 1525 779 10;
#X text 748 486 cz*1/2/Math.PI/sigx/sigy*Math.exp(-1*((x-cx)*(x-cx)/2/sigx/sigx+(y-cy)*(y-cy)/2/sigy/sigy)
;
#X text 1079 196 $f1 x \; $f2 y \; $f3 cx \; $f4 cy \; $f5 cz \; $f6
sigx \; $f7 sigy \;;
#X text 1082 125 e = 2.718;
#X text 1080 155 pi = 3.1415;
#X obj 302 327 inlet;
#X obj 417 327 inlet;
#X obj 468 328 inlet;
#X floatatom 470 424 5 0 0 0 - - -, f 5;
#X floatatom 535 422 5 0 0 0 - - -, f 5;
#X obj 525 328 inlet;
#X floatatom 592 422 5 0 0 0 - - -, f 5;
#X obj 582 328 inlet;
#X floatatom 649 422 5 0 0 0 - - -, f 5;
#X obj 643 327 inlet;
#X floatatom 710 421 5 0 0 0 - - -, f 5;
#X text 1142 223 arg1: cx \; arg2: cy \; arg3: cz \; arg4: sigx \;
arg5: sigy \;;
#X obj 402 617 outlet;
#X obj 758 202 f \$1;
#X obj 839 88 loadbang;
#X obj 839 254 route 0;
#X obj 896 253 route 0;
#X obj 961 252 route 0;
#X obj 798 203 f \$2;
#X obj 839 203 f \$3;
#X obj 886 205 f \$4;
#X obj 931 206 f \$5;
#X msg 839 290 1;
#X msg 896 292 1;
#X msg 965 290 1;
#X obj 838 334 f;
#X obj 896 333 f;
#X obj 963 335 f;
#X obj 332 400 unpack 1 1;
#X text 303 300 x y;
#X text 422 298 cx;
#X text 472 298 cy;
#X text 532 298 cz;
#X text 580 298 sigx;
#X text 649 300 sigy;
#X obj 373 482 expr $f5*0.5*3.1415/$f6/$f7*pow(2.718 \, -1*(($f1-$f3)*($f1-$f3)/2/$f6/$f6+($f2-$f4)*($f2-$f4)/2/$f7/$f7))
;
#X connect 4 0 32 0;
#X connect 5 0 7 0;
#X connect 6 0 8 0;
#X connect 7 0 39 2;
#X connect 8 0 39 3;
#X connect 9 0 10 0;
#X connect 10 0 39 4;
#X connect 11 0 12 0;
#X connect 12 0 39 5;
#X connect 13 0 14 0;
#X connect 14 0 39 6;
#X connect 17 0 7 0;
#X connect 18 0 17 0;
#X connect 18 0 22 0;
#X connect 18 0 23 0;
#X connect 18 0 24 0;
#X connect 18 0 25 0;
#X connect 19 0 26 0;
#X connect 19 1 29 0;
#X connect 20 0 27 0;
#X connect 20 1 30 0;
#X connect 21 0 28 0;
#X connect 21 1 31 0;
#X connect 22 0 8 0;
#X connect 23 0 19 0;
#X connect 24 0 20 0;
#X connect 25 0 21 0;
#X connect 26 0 29 0;
#X connect 27 0 30 0;
#X connect 28 0 31 0;
#X connect 29 0 10 0;
#X connect 30 0 12 0;
#X connect 31 0 14 0;
#X connect 32 0 39 0;
#X connect 32 1 39 1;
#X connect 39 0 16 0;
