#N canvas 463 272 1140 704 10;
#X obj 514 73 inlet;
#X obj 515 453 outlet;
#X obj 513 202 t f f b;
#X obj 513 394 t f f;
#X floatatom 760 253 5 0 0 0 - - -;
#X floatatom 840 252 5 0 0 0 - - -;
#X msg 734 188 0.1;
#X msg 813 185 0.5;
#X obj 789 90 f \$1;
#X obj 743 142 route 0;
#X obj 840 131 route 0;
#X obj 839 91 f \$2;
#X obj 799 29 loadbang;
#X obj 951 92 inlet;
#X obj 1002 90 inlet;
#X floatatom 457 385 5 0 0 0 - - -;
#X floatatom 444 231 5 0 0 0 - - -;
#X obj 545 262 f 0;
#X obj 728 94 f 0.5;
#X obj 710 41 bng 15 250 50 0 empty empty empty 17 7 0 10 -262144 -1
-1;
#X obj 513 312 expr if($f1>$f2 \, $f3+$f4*($f1-$f3) \, $f3+$f5*($f1-$f3))
;
#X obj 514 144 spigot;
#X obj 774 56 t b b b b;
#X floatatom 675 266 5 0 0 0 - - -;
#X msg 625 107 1;
#X obj 1065 89 inlet;
#X connect 0 0 21 0;
#X connect 2 0 16 0;
#X connect 2 0 20 0;
#X connect 2 1 17 1;
#X connect 2 2 17 0;
#X connect 3 0 1 0;
#X connect 3 1 23 0;
#X connect 4 0 20 3;
#X connect 5 0 20 4;
#X connect 6 0 4 0;
#X connect 7 0 5 0;
#X connect 8 0 9 0;
#X connect 9 0 6 0;
#X connect 9 1 4 0;
#X connect 10 0 7 0;
#X connect 10 1 5 0;
#X connect 11 0 10 0;
#X connect 12 0 22 0;
#X connect 13 0 4 0;
#X connect 14 0 5 0;
#X connect 17 0 20 1;
#X connect 18 0 23 0;
#X connect 19 0 18 0;
#X connect 20 0 3 0;
#X connect 20 0 15 0;
#X connect 21 0 2 0;
#X connect 22 0 24 0;
#X connect 22 1 18 0;
#X connect 22 2 8 0;
#X connect 22 3 11 0;
#X connect 23 0 20 2;
#X connect 24 0 21 1;
#X connect 25 0 23 0;
#X connect 25 0 17 1;
