#N canvas 709 350 638 451 12;
#X obj 176 81 inlet;
#X obj 236 82 inlet;
#X obj 327 82 inlet;
#X obj 129 150 random 999999;
#X obj 170 236 ali.scale 0 999999;
#X obj 425 166 f \$1;
#X obj 425 112 loadbang;
#X obj 459 166 f \$2;
#X obj 184 300 outlet;
#X connect 0 0 3 0;
#X connect 1 0 4 3;
#X connect 2 0 4 4;
#X connect 3 0 4 0;
#X connect 4 0 8 0;
#X connect 5 0 4 3;
#X connect 6 0 5 0;
#X connect 6 0 7 0;
#X connect 7 0 4 4;
