#N canvas 0 23 964 683 12;
#X obj 667 485 *~;
#X obj 704 448 line~;
#X msg 718 410 \$1 30;
#X obj 716 381 / 127;
#X obj 627 321 inlet~;
#X obj 668 569 outlet~;
#X obj 760 314 inlet;
#X connect 0 0 5 0;
#X connect 1 0 0 1;
#X connect 2 0 1 0;
#X connect 3 0 2 0;
#X connect 4 0 0 0;
#X connect 6 0 3 0;
