#N canvas 495 23 450 300 10;
#X obj 136 52 inlet;
#X obj 171 663 outlet;
#X obj 189 82 route rate-scale frequency-scale;
#X obj 437 201 list;
#X obj 135 361 list-iter 3;
#X msg 205 205 1;
#X obj 138 393 unpack 1 1 1;
#X obj 249 435 * 1;
#X obj 146 476 pack 1 1 1;
#X obj 161 575 list-group;
#X obj 168 301 t l l;
#X obj 336 508 list length;
#X obj 244 509 list-iter 1;
#X obj 469 371 list-iter 3;
#X obj 472 403 unpack 1 1 1;
#X obj 583 445 * 1;
#X obj 480 486 pack 1 1 1;
#X obj 495 585 list-group;
#X obj 502 311 t l l;
#X obj 670 518 list length;
#X obj 578 519 list-iter 1;
#X obj 165 266 spigot;
#X msg 112 204 0;
#X obj 189 144 t b b f b;
#X obj 262 144 t b b f b;
#X msg 253 205 1;
#X obj 326 265 spigot;
#X connect 0 0 2 0;
#X connect 2 0 23 0;
#X connect 2 1 24 0;
#X connect 2 2 3 1;
#X connect 3 0 21 0;
#X connect 3 0 26 0;
#X connect 4 0 6 0;
#X connect 5 0 21 1;
#X connect 6 0 8 0;
#X connect 6 1 8 1;
#X connect 6 2 7 0;
#X connect 7 0 8 2;
#X connect 8 0 12 0;
#X connect 9 0 1 0;
#X connect 10 0 4 0;
#X connect 10 1 11 0;
#X connect 11 0 9 1;
#X connect 12 0 9 0;
#X connect 13 0 14 0;
#X connect 14 0 16 0;
#X connect 14 1 15 0;
#X connect 14 2 16 2;
#X connect 15 0 16 1;
#X connect 16 0 20 0;
#X connect 17 0 1 0;
#X connect 18 0 13 0;
#X connect 18 1 19 0;
#X connect 19 0 17 1;
#X connect 20 0 17 0;
#X connect 21 0 10 0;
#X connect 22 0 21 1;
#X connect 22 0 26 1;
#X connect 23 0 3 0;
#X connect 23 1 5 0;
#X connect 23 2 7 1;
#X connect 23 3 22 0;
#X connect 24 1 25 0;
#X connect 24 2 15 1;
#X connect 24 3 22 0;
#X connect 25 0 26 1;
#X connect 26 0 18 0;
