#N canvas 792 390 955 633 12;
#X obj 443 218 tgl 15 0 empty empty empty 17 7 0 10 -262144 -1 -1 1
1;
#X obj 443 296 int;
#X obj 446 397 -;
#X obj 441 249 metro 50;
#X obj 453 342 t f f;
#X obj 331 116 loadbang;
#X msg 329 165 1;
#X obj 479 128 inlet;
#X obj 441 448 outlet;
#X obj 695 112 loadbang;
#X obj 611 214 sel 0;
#X obj 695 150 pack \$1;
#X obj 560 124 inlet;
#X connect 0 0 3 0;
#X connect 1 0 4 0;
#X connect 2 0 8 0;
#X connect 3 0 1 0;
#X connect 4 0 2 1;
#X connect 4 1 2 0;
#X connect 5 0 6 0;
#X connect 6 0 0 0;
#X connect 7 0 1 1;
#X connect 9 0 11 0;
#X connect 10 1 3 1;
#X connect 11 0 10 0;
#X connect 12 0 0 0;
