#N canvas 0 23 1680 1005 10;
#X obj 855 781 line~;
#X obj 650 501 t b b;
#X msg 859 706 0;
#X obj 631 461 bng 15 250 50 0 empty empty empty 17 7 0 10 -262144
-1 -1;
#X obj 760 672 pack 1 1;
#X obj 1273 728 vsl 15 128 0 127 0 0 empty empty empty 0 -9 0 10 -262144
-1 -1 8890 1;
#X obj 930 987 ali.gain;
#X obj 759 714 t b l;
#X obj 721 808 del;
#X msg 1250 318 stop;
#X obj 1072 83 route play stop gain;
#X obj 1073 56 inlet;
#X obj 655 621 spigot;
#X obj 726 372 list prepend set;
#X obj 726 402 route list;
#X obj 858 290 route 0;
#X text 1316 86 sample-array: name of table or array start-time: start
time in sample in ms duration: duration to playback \; 0 playsback
entire sample gain_(0-1): gain from 0 to 1 \; linear \; playspeed_(0-x):
playspeed \; 1 is normal \, 2 is double speed \; looping_(0-1): 0 no
loop \, 1 loops 'til "stop" message;
#X text 1280 69 play message arguments;
#X obj 1001 154 unpack s 0 0 0 0 0;
#X obj 1000 229 array size;
#X floatatom 1000 254 10 0 0 0 - - -;
#X obj 999 297 / 44.1;
#X obj 1081 230 r SR_KH;
#X text 1278 391 sample length in ms;
#X obj 1001 189 t b a a;
#X obj 1167 541 list prepend set;
#X obj 1167 572 route list;
#X obj 1076 410 f;
#X obj 1076 450 /;
#X obj 864 385 * 127;
#X text 862 203 playspeed;
#X obj 972 414 * 44.1;
#X obj 742 198 unpack s 0 0 0 0 0;
#X text 721 459 loop;
#X text 847 322 gain;
#X obj 842 491 +;
#X obj 760 627 float;
#X obj 727 301 * 44.1;
#X text 722 424 start_time_samps;
#X text 696 276 start_time_ms;
#X text 1037 644 start_time_samps;
#X text 793 533 end_time_samps;
#X text 972 435 dur_samps;
#X obj 618 264 t b b;
#X obj 933 1043 outlet~;
#X obj 740 117 t a a;
#X obj 1281 672 * 127;
#X obj 855 887 tabread4~ no-problem;
#X connect 0 0 47 0;
#X connect 1 0 36 0;
#X connect 1 1 2 0;
#X connect 2 0 0 0;
#X connect 3 0 1 0;
#X connect 4 0 7 0;
#X connect 5 0 6 1;
#X connect 6 0 44 0;
#X connect 7 0 8 0;
#X connect 7 1 0 0;
#X connect 8 0 12 0;
#X connect 9 0 8 0;
#X connect 9 0 0 0;
#X connect 10 0 45 0;
#X connect 10 1 9 0;
#X connect 10 2 46 0;
#X connect 11 0 10 0;
#X connect 12 0 3 0;
#X connect 13 0 14 0;
#X connect 14 0 2 0;
#X connect 15 1 31 0;
#X connect 15 1 27 1;
#X connect 18 0 24 0;
#X connect 19 0 20 0;
#X connect 20 0 21 0;
#X connect 21 0 27 1;
#X connect 21 0 31 0;
#X connect 22 0 21 1;
#X connect 24 0 19 0;
#X connect 24 1 19 1;
#X connect 24 2 25 0;
#X connect 25 0 26 0;
#X connect 26 0 47 0;
#X connect 27 0 28 0;
#X connect 28 0 4 1;
#X connect 28 0 8 1;
#X connect 29 0 5 0;
#X connect 31 0 35 1;
#X connect 32 0 43 0;
#X connect 32 1 37 0;
#X connect 32 2 15 0;
#X connect 32 3 29 0;
#X connect 32 4 28 1;
#X connect 32 5 12 1;
#X connect 35 0 36 1;
#X connect 36 0 4 0;
#X connect 37 0 13 0;
#X connect 37 0 35 0;
#X connect 43 0 3 0;
#X connect 43 1 27 0;
#X connect 45 0 32 0;
#X connect 45 1 18 0;
#X connect 46 0 5 0;
#X connect 47 0 6 0;
