#N canvas 0 22 1067 700 10;
#X obj 329 298 expr ($f1-$f2)/($f3-$f2) * ($f5-$f4) + $f4;
#X obj 331 122 inlet;
#X obj 379 124 inlet;
#X obj 436 127 inlet;
#X obj 499 126 inlet;
#X obj 570 135 inlet;
#X obj 354 381 outlet;
#X obj 680 208 f \$1;
#X obj 680 154 loadbang;
#X obj 714 208 f \$2;
#X obj 751 208 f \$3;
#X obj 807 209 f \$4;
#X connect 0 0 6 0;
#X connect 1 0 0 0;
#X connect 2 0 0 1;
#X connect 3 0 0 2;
#X connect 4 0 0 3;
#X connect 5 0 0 4;
#X connect 7 0 0 1;
#X connect 8 0 7 0;
#X connect 8 0 9 0;
#X connect 8 0 10 0;
#X connect 8 0 11 0;
#X connect 9 0 0 2;
#X connect 10 0 0 3;
#X connect 11 0 0 4;
