#N canvas 282 156 689 481 10;
#X obj 205 131 moses;
#X obj 45 33 inlet~;
#X obj 205 84 env~ 1024;
#X floatatom 205 108 5 0 0 0 - - -, f 5;
#X obj 206 157 bng 15 250 50 0 empty empty empty 17 7 0 10 -262144
-1 -1;
#X msg 206 244 1;
#X obj 206 382 line~;
#X obj 47 410 *~;
#X obj 47 438 outlet~;
#X obj 206 319 pack;
#X msg 206 348 \$1 \$2;
#X floatatom 243 300 5 0 0 0 - - -, f 5;
#X text 210 270 Attack;
#X obj 300 318 pack;
#X msg 300 347 \$1 \$2;
#X floatatom 339 299 5 0 0 0 - - -, f 5;
#X text 302 269 Release;
#X text 433 34 Threshold;
#X floatatom 449 55 5 0 0 0 - - -, f 5;
#X obj 236 166 expr (($f1 - $f3) / $f2) - $f1 + $f3;
#X obj 342 55 loadbang;
#X obj 236 229 dbtorms;
#X obj 236 195 expr 100 + $f1;
#X text 342 33 Ratio;
#X msg 342 87 10;
#X obj 519 123 inlet;
#X obj 558 123 inlet;
#X obj 597 123 inlet;
#X obj 636 123 inlet;
#X obj 522 71 f \$1;
#X obj 522 17 loadbang;
#X obj 556 71 f \$2;
#X obj 593 71 f \$3;
#X obj 629 71 f \$4;
#X obj 45 97 delwrite~ \$0comp 100;
#X obj 48 266 delread~ \$0comp;
#X floatatom 375 89 5 0 0 0 - - -, f 5;
#X obj 48 210 loadbang;
#X msg 48 242 23.22;
#X connect 0 0 4 0;
#X connect 0 1 19 0;
#X connect 1 0 2 0;
#X connect 1 0 34 0;
#X connect 2 0 3 0;
#X connect 3 0 0 0;
#X connect 4 0 5 0;
#X connect 5 0 9 0;
#X connect 6 0 7 1;
#X connect 7 0 8 0;
#X connect 9 0 10 0;
#X connect 10 0 6 0;
#X connect 11 0 9 1;
#X connect 13 0 14 0;
#X connect 14 0 6 0;
#X connect 15 0 13 1;
#X connect 18 0 0 1;
#X connect 18 0 19 2;
#X connect 19 0 22 0;
#X connect 20 0 24 0;
#X connect 21 0 13 0;
#X connect 22 0 21 0;
#X connect 24 0 19 1;
#X connect 25 0 18 0;
#X connect 26 0 36 0;
#X connect 27 0 11 0;
#X connect 28 0 15 0;
#X connect 29 0 18 0;
#X connect 30 0 29 0;
#X connect 30 0 31 0;
#X connect 30 0 32 0;
#X connect 30 0 33 0;
#X connect 31 0 36 0;
#X connect 32 0 11 0;
#X connect 33 0 15 0;
#X connect 35 0 7 0;
#X connect 36 0 19 1;
#X connect 37 0 38 0;
#X connect 38 0 35 0;
