#N canvas 525 23 697 830 10;
#X obj 233 617 phasor~;
#X obj 230 338 expr 1000 / $f1;
#X floatatom 232 439 5 0 0 0 - - -, f 5;
#X floatatom 577 710 5 0 0 0 - - -, f 5;
#X obj 604 586 metro 10;
#X obj 232 577 line~;
#X msg 231 541 \$1 20;
#X obj 232 476 * 1;
#X floatatom 379 364 5 0 0 0 - - -, f 5;
#X obj 367 398 t b f;
#X obj 279 226 array size;
#X floatatom 279 251 10 0 0 0 - - -, f 10;
#X obj 311 296 / 44.1;
#X obj 362 252 r SR_KH;
#X obj 280 186 t b a a;
#X obj 327 818 ali.gain;
#X obj 123 47 inlet;
#X obj 545 798 outlet;
#X obj 576 664 snapshot~ 10;
#X obj 210 668 *~;
#X obj 167 261 tgl 15 0 empty empty empty 17 7 0 10 -262144 -1 -1 0
1;
#X obj 235 710 *~ 1;
#X obj 323 939 outlet~;
#X obj 289 116 list prepend symbol;
#X obj 289 151 route list;
#X obj 289 70 route symbol;
#X obj 237 775 tabread4~;
#X obj 477 336 list prepend set;
#X obj 484 390 route list;
#X obj 98 804 ali.fade-in-out;
#X obj 326 893 *~;
#X msg 208 880 0;
#X obj 97 529 sel 1;
#X obj 65 653 t b b;
#X msg 140 688 1;
#X msg 65 714 1;
#X obj 127 860 bng 15 250 50 0 empty empty empty 17 7 0 10 -262144
-1 -1;
#X obj 164 863 bng 15 250 50 0 empty empty empty 17 7 0 10 -262144
-1 -1;
#X floatatom 459 240 5 0 0 0 - - -, f 5;
#X floatatom 349 331 5 0 0 0 - - -, f 5;
#X obj 295 25 route play sample playspeed gain reset;
#X msg 297 548 bang;
#X connect 0 0 19 0;
#X connect 1 0 2 0;
#X connect 2 0 7 0;
#X connect 3 0 17 0;
#X connect 4 0 18 0;
#X connect 5 0 0 0;
#X connect 6 0 5 0;
#X connect 7 0 6 0;
#X connect 8 0 9 0;
#X connect 9 0 2 0;
#X connect 9 1 7 1;
#X connect 10 0 11 0;
#X connect 11 0 12 0;
#X connect 11 0 21 1;
#X connect 12 0 1 0;
#X connect 12 0 39 0;
#X connect 13 0 12 1;
#X connect 14 0 10 0;
#X connect 14 1 10 1;
#X connect 14 2 27 0;
#X connect 15 0 30 0;
#X connect 16 0 40 0;
#X connect 18 0 3 0;
#X connect 19 0 21 0;
#X connect 19 0 18 0;
#X connect 20 0 4 0;
#X connect 20 0 32 0;
#X connect 21 0 26 0;
#X connect 23 0 24 0;
#X connect 24 0 14 0;
#X connect 25 0 23 0;
#X connect 25 1 23 0;
#X connect 26 0 15 0;
#X connect 27 0 28 0;
#X connect 28 0 26 0;
#X connect 29 0 30 1;
#X connect 29 1 36 0;
#X connect 29 2 31 0;
#X connect 29 2 37 0;
#X connect 30 0 22 0;
#X connect 31 0 19 1;
#X connect 32 0 33 0;
#X connect 32 1 29 0;
#X connect 33 0 35 0;
#X connect 33 1 34 0;
#X connect 34 0 19 1;
#X connect 35 0 29 0;
#X connect 40 0 20 0;
#X connect 40 1 25 0;
#X connect 40 2 8 0;
#X connect 40 3 15 1;
#X connect 40 3 38 0;
#X connect 40 4 41 0;
#X connect 41 0 0 1;
