#N canvas 1 23 1435 719 10;
#X msg 91 309 freq \$1;
#X msg 197 309 amp \$1;
#X msg 302 309 vfr \$1;
#X msg 409 307 vib \$1;
#X msg 520 307 bw \$1;
#X msg 642 306 cf \$1;
#X msg 741 306 shift \$1;
#X msg 837 304 cfgliss \$1;
#X obj 203 429 ali.paf~;
#X obj 183 596 dac~ 1 2;
#X text 1127 125 <-Click to start;
#X obj 1109 129 tgl 15 0 empty empty empty 17 7 0 10 -262144 -1 -1
0 1;
#X msg 1108 165 \; pd dsp \$1 \;;
#X obj 200 546 *~;
#X obj 506 636 line~;
#X obj 509 423 vsl 15 128 0 1 0 1 VCO_freq empty empty 0 -9 0 10 -262144
-1 -1 0 1;
#X floatatom 509 563 5 0 0 0 - - -, f 5;
#X msg 510 602 \$1 20;
#X obj 1029 529 s paf-pbank;
#X msg 1030 450 write ali.paf-space.pbank;
#N canvas 734 100 706 564 space-interpolation 0;
#X obj 167 99 hsl 128 15 0 127 0 0 empty empty empty -2 -8 0 10 -262144
-1 -1 0 1;
#X obj 220 44 vsl 15 128 0 127 0 0 empty empty empty 0 -9 0 10 -262144
-1 -1 0 1;
#X obj 160 229 / 127;
#X obj 207 228 / 127;
#X obj 157 261 pack 1 1;
#X msg 156 296 interp \$1 \$2;
#X obj 191 193 bng 15 250 50 0 empty empty empty 17 7 0 10 -262144
-1 -1;
#X obj 155 329 outlet;
#X text 297 258 this interpolates between the 1st 10 presets;
#X text 299 281 as if the 10 presets are layed out on a 2d space;
#X text 304 307 you must have 10 presets saved for this to work!;
#X connect 0 0 2 0;
#X connect 1 0 3 0;
#X connect 1 0 6 0;
#X connect 2 0 4 0;
#X connect 3 0 4 1;
#X connect 4 0 5 0;
#X connect 5 0 7 0;
#X connect 6 0 2 0;
#X restore 789 449 pd space-interpolation;
#X obj 91 91 ali.pbank-param \$0paf 0 freq 0 127;
#X obj 837 91 ali.pbank-param \$0paf 7 cfgliss 0 2000;
#X obj 741 91 ali.pbank-param \$0paf 6 shift 0 127;
#X obj 642 91 ali.pbank-param \$0paf 5 cf 0 127;
#X obj 520 91 ali.pbank-param \$0paf 4 bw 0 127;
#X obj 409 91 ali.pbank-param \$0paf 3 vib 0 2000;
#X obj 302 91 ali.pbank-param \$0paf 2 vfr 0 127;
#X obj 188 91 ali.pbank-param \$0paf 1 amp 0 2;
#X obj 700 506 ali.pbank \$0paf 8 10 ali.paf-space.pbank;
#X connect 0 0 8 0;
#X connect 1 0 8 0;
#X connect 2 0 8 0;
#X connect 3 0 8 0;
#X connect 4 0 8 0;
#X connect 5 0 8 0;
#X connect 6 0 8 0;
#X connect 7 0 8 0;
#X connect 8 0 13 0;
#X connect 11 0 12 0;
#X connect 13 0 9 0;
#X connect 13 0 9 1;
#X connect 14 0 13 1;
#X connect 15 0 16 0;
#X connect 16 0 17 0;
#X connect 17 0 14 0;
#X connect 19 0 18 0;
#X connect 20 0 29 0;
#X connect 21 0 0 0;
#X connect 22 0 7 0;
#X connect 23 0 6 0;
#X connect 24 0 5 0;
#X connect 25 0 4 0;
#X connect 26 0 3 0;
#X connect 27 0 2 0;
#X connect 28 0 1 0;
