#N canvas 2074 58 1198 715 10;
#X msg 53 280 freq \$1;
#X msg 159 280 amp \$1;
#X msg 264 280 vfr \$1;
#X msg 371 278 vib \$1;
#X msg 482 278 bw \$1;
#X msg 604 277 cf \$1;
#X msg 703 277 shift \$1;
#X msg 799 275 cfgliss \$1;
#X obj 53 387 ali.paf~;
#X obj 53 539 *~;
#X obj 550 569 line~;
#X obj 553 356 vsl 15 128 0 1 0 1 VCO_freq empty empty 0 -9 0 10 -262144
-1 -1 164 1;
#X floatatom 553 496 5 0 0 0 - - -, f 5;
#X msg 554 535 \$1 20;
#N canvas 0 23 982 546 fingers 0;
#X obj 315 193 unpack 1 1 1 1 1;
#X obj 388 448 pack 1 1;
#X obj 382 305 ali.scale 0 228 0 1;
#X obj 433 345 ali.scale 0 127 0 1;
#X obj 541 517 outlet;
#X msg 392 481 interp \$1 \$2;
#X floatatom 271 400 5 0 0 0 - - -, f 5;
#X floatatom 323 402 5 0 0 0 - - -, f 5;
#X floatatom 440 240 5 0 0 0 - - -, f 5;
#X obj 629 306 ali.scale 0 2000 0 1;
#X obj 619 513 outlet;
#X obj 364 104 inlet;
#X floatatom 182 266 5 0 0 0 - - -, f 5;
#X obj 178 297 sel 3;
#X msg 180 330 0;
#X obj 721 507 outlet;
#X msg 742 418 \$1 20;
#X msg 813 412 0 3000;
#X floatatom 833 356 5 0 0 0 - - -, f 5;
#X obj 750 357 clip 0 1;
#X obj 785 306 ali.scale 250 500 0 1;
#X floatatom 831 384 5 0 0 0 - - -, f 5;
#X connect 0 0 12 0;
#X connect 0 1 2 0;
#X connect 0 2 3 0;
#X connect 0 3 8 0;
#X connect 0 3 9 0;
#X connect 0 4 20 0;
#X connect 1 0 5 0;
#X connect 2 0 1 0;
#X connect 2 0 6 0;
#X connect 3 0 1 1;
#X connect 3 0 7 0;
#X connect 5 0 4 0;
#X connect 9 0 10 0;
#X connect 11 0 0 0;
#X connect 12 0 13 0;
#X connect 13 0 14 0;
#X connect 14 0 10 0;
#X connect 14 0 17 0;
#X connect 16 0 15 0;
#X connect 17 0 15 0;
#X connect 19 0 16 0;
#X connect 19 0 21 0;
#X connect 20 0 18 0;
#X connect 20 0 19 0;
#X restore 662 421 pd fingers;
#N canvas 734 100 706 564 space-interpolation 0;
#X obj 167 99 hsl 128 15 0 127 0 0 empty empty empty -2 -8 0 10 -262144
-1 -1 0 1;
#X obj 220 44 vsl 15 128 0 127 0 0 empty empty empty 0 -9 0 10 -262144
-1 -1 0 1;
#X obj 160 229 / 127;
#X obj 207 228 / 127;
#X obj 157 261 pack 1 1;
#X msg 156 296 interp \$1 \$2;
#X obj 191 193 bng 15 250 50 0 empty empty empty 17 7 0 10 -262144
-1 -1;
#X obj 155 329 outlet;
#X text 297 258 this interpolates between the 1st 10 presets;
#X text 299 281 as if the 10 presets are layed out on a 2d space;
#X text 304 307 you must have 10 presets saved for this to work!;
#X connect 0 0 2 0;
#X connect 1 0 3 0;
#X connect 1 0 6 0;
#X connect 2 0 4 0;
#X connect 3 0 4 1;
#X connect 4 0 5 0;
#X connect 5 0 7 0;
#X connect 6 0 2 0;
#X restore 751 420 pd space-interpolation;
#X obj 53 12 ali.pbank-param \$1-paf 0 freq 0 127;
#X obj 799 12 ali.pbank-param \$1-paf 7 cfgliss 0 2000;
#X obj 703 12 ali.pbank-param \$1-paf 6 shift 0 127;
#X obj 604 12 ali.pbank-param \$1-paf 5 cf 0 127;
#X obj 482 12 ali.pbank-param \$1-paf 4 bw 0 127;
#X obj 371 12 ali.pbank-param \$1-paf 3 vib 0 2000;
#X obj 264 12 ali.pbank-param \$1-paf 2 vfr 0 127;
#X obj 150 12 ali.pbank-param \$1-paf 1 amp 0 2;
#X obj 54 662 outlet~;
#X obj 912 256 pack 1 1 1 1 1 1 1 1;
#X obj 913 288 list prepend params;
#X obj 15 168 bng 15 250 50 0 empty empty empty 17 7 0 10 -262144 -1
-1;
#X obj 913 308 route list;
#X obj 871 56 route 0 1 2 3 4 5 6 7;
#X obj 662 477 ali.pbank 8 10 ali.paf-space-abs.pbank;
#X msg 909 342 write ali.paf-space-abs.pbank;
#X obj 918 593 bng 15 250 50 0 empty empty empty 17 7 0 10 -262144
-1 -1;
#X floatatom 241 488 0 0 120 0 - - -;
#X text 292 497 level \, dB;
#X floatatom 284 523 0 0 100 0 - - -;
#X text 327 519 liveness \, 0-100;
#X floatatom 321 543 4 0 5000 0 - - -, f 4;
#X floatatom 356 566 0 0 100 0 - - -;
#X text 369 541 crossover frequency \, Hz.;
#X text 392 568 HF damping \, percent;
#X obj 181 592 rev3~ 100 90 3000 20;
#X obj 202 449 line~;
#X obj 158 506 *~;
#X obj 657 327 inlet;
#X msg 708 393 interp \$1 \$2;
#X obj 658 366 route sensel interp gain verb;
#X connect 0 0 8 0;
#X connect 1 0 8 0;
#X connect 2 0 8 0;
#X connect 3 0 8 0;
#X connect 4 0 8 0;
#X connect 5 0 8 0;
#X connect 6 0 8 0;
#X connect 7 0 8 0;
#X connect 8 0 9 0;
#X connect 8 0 43 0;
#X connect 9 0 24 0;
#X connect 10 0 9 1;
#X connect 11 0 12 0;
#X connect 12 0 13 0;
#X connect 13 0 10 0;
#X connect 14 0 30 0;
#X connect 14 1 11 0;
#X connect 14 2 42 0;
#X connect 15 0 30 0;
#X connect 16 0 0 0;
#X connect 16 0 25 0;
#X connect 17 0 7 0;
#X connect 17 0 25 7;
#X connect 17 0 27 0;
#X connect 18 0 6 0;
#X connect 18 0 25 6;
#X connect 18 0 27 0;
#X connect 19 0 5 0;
#X connect 19 0 25 5;
#X connect 19 0 27 0;
#X connect 20 0 4 0;
#X connect 20 0 25 4;
#X connect 20 0 27 0;
#X connect 21 0 3 0;
#X connect 21 0 25 3;
#X connect 21 0 27 0;
#X connect 22 0 2 0;
#X connect 22 0 25 2;
#X connect 22 0 27 0;
#X connect 23 0 1 0;
#X connect 23 0 25 1;
#X connect 23 0 27 0;
#X connect 25 0 26 0;
#X connect 26 0 28 0;
#X connect 27 0 25 0;
#X connect 28 0 30 0;
#X connect 29 0 16 0;
#X connect 29 1 23 0;
#X connect 29 2 22 0;
#X connect 29 3 21 0;
#X connect 29 4 20 0;
#X connect 29 5 19 0;
#X connect 29 6 18 0;
#X connect 29 7 17 0;
#X connect 30 0 29 0;
#X connect 31 0 30 0;
#X connect 33 0 41 2;
#X connect 35 0 41 3;
#X connect 37 0 41 4;
#X connect 38 0 41 5;
#X connect 41 0 24 0;
#X connect 42 0 43 1;
#X connect 43 0 41 0;
#X connect 44 0 46 0;
#X connect 45 0 30 0;
#X connect 46 0 14 0;
#X connect 46 1 45 0;
#X connect 46 2 11 0;
#X connect 46 3 42 0;
