#N canvas 208 77 822 694 10;
#X obj 441 311 *~ 44.1;
#X obj 500 312 r SR_KH;
#X obj 273 500 ali.fade-in-out;
#X obj 236 469 *~;
#X obj 242 165 tgl 15 0 empty empty empty 17 7 0 10 -262144 -1 -1 1
1;
#X obj 234 229 sel 1 0;
#X obj 279 361 *~;
#X msg 297 297 1;
#X msg 264 296 1;
#X obj 273 466 tgl 15 0 empty empty empty 17 7 0 10 -262144 -1 -1 1
1;
#X msg 334 298 0;
#X msg 341 410 0;
#X obj 441 265 vline~;
#X msg 441 230 0 \, \$1 \$1;
#X obj 441 192 int;
#X obj 314 24 inlet;
#X text 140 27 1 - play 0 - stop;
#X obj 202 262 t b b b;
#X obj 230 575 outlet~;
#X obj 375 535 t b b;
#X msg 374 576 stop;
#X obj 183 411 tabread4~ \$1;
#X msg 682 246 set \$1;
#X obj 504 435 snapshot~;
#X floatatom 532 474 5 0 0 0 - - -, f 5;
#X obj 602 343 tgl 15 0 empty empty empty 17 7 0 10 -262144 -1 -1 1
1;
#X obj 581 384 metro 200;
#X obj 655 318 loadbang;
#X msg 679 353 1;
#X obj 550 536 /;
#X obj 546 604 outlet;
#X obj 552 571 * 127;
#X obj 312 89 route play len name;
#X connect 0 0 6 0;
#X connect 1 0 0 1;
#X connect 2 0 3 1;
#X connect 2 2 19 0;
#X connect 3 0 18 0;
#X connect 4 0 5 0;
#X connect 5 0 17 0;
#X connect 5 1 10 0;
#X connect 6 0 21 0;
#X connect 7 0 6 1;
#X connect 8 0 9 0;
#X connect 9 0 2 0;
#X connect 10 0 9 0;
#X connect 11 0 6 1;
#X connect 12 0 0 0;
#X connect 12 0 23 0;
#X connect 13 0 12 0;
#X connect 14 0 13 0;
#X connect 14 0 29 1;
#X connect 15 0 32 0;
#X connect 17 0 14 0;
#X connect 17 1 8 0;
#X connect 17 2 7 0;
#X connect 19 0 20 0;
#X connect 19 1 11 0;
#X connect 20 0 12 0;
#X connect 21 0 3 0;
#X connect 22 0 21 0;
#X connect 23 0 24 0;
#X connect 24 0 29 0;
#X connect 25 0 26 0;
#X connect 26 0 23 0;
#X connect 27 0 28 0;
#X connect 28 0 25 0;
#X connect 29 0 31 0;
#X connect 31 0 30 0;
#X connect 32 0 4 0;
#X connect 32 1 14 1;
#X connect 32 2 22 0;
