#N canvas 494 122 1426 747 10;
#X obj 963 85 loadbang;
#X obj 458 196 unpack 1 1 1;
#X obj 322 199 unpack 1 1 1;
#X obj 28 295 pack 1 1 0.5;
#X obj 458 277 * 3;
#X obj 28 329 route 0;
#X obj 353 160 trigger list list list;
#X obj 846 174 unpack 1 1 1;
#X obj 877 217 sel 1;
#X msg 883 271 const 0;
#X obj 458 241 - 1;
#X obj 352 96 inlet;
#X obj 966 165 float \$2;
#X msg 967 264 resize \$1;
#X obj 1035 211 * 2;
#X msg 1038 265 resize \$1;
#X obj 966 212 * 3;
#X obj 508 277 * 2;
#X obj 301 327 route 0;
#X obj 301 293 pack 1 1;
#X text -105 296 decay rates set here;
#X obj 345 424 array set \$1-sin;
#X obj 50 427 array set \$1-res;
#X obj 651 411 array define \$1-res;
#X obj 917 412 array define \$1-sin;
#X obj 147 101 random 128;
#X obj 160 56 bng 15 250 50 0 empty empty empty 17 7 0 10 -262144 -1
-1;
#X obj 149 150 ali.scale 0 128 0.5 4;
#X msg 1109 265 resize \$1;
#X obj 1085 213 * 1;
#X obj 1039 411 array define \$1-freqs;
#X obj 450 424 array set \$1-freqs;
#X obj 546 280 * 1;
#X obj 379 325 route 0;
#X obj 162 329 route 0;
#X obj 162 295 pack 1 0.3 0.5;
#X obj 184 426 array set \$1-res-ez;
#X obj 772 412 array define \$1-res-ez;
#X msg 259 260 0.3;
#X obj 267 214 bng 15 250 50 0 empty empty empty 17 7 0 10 -262144
-1 -1;
#X connect 0 0 12 0;
#X connect 1 0 10 0;
#X connect 2 1 3 0;
#X connect 2 1 19 0;
#X connect 2 1 33 0;
#X connect 2 1 35 0;
#X connect 2 2 3 1;
#X connect 2 2 19 1;
#X connect 2 2 26 0;
#X connect 2 2 39 0;
#X connect 3 0 5 0;
#X connect 4 0 22 1;
#X connect 4 0 36 1;
#X connect 5 1 22 0;
#X connect 6 0 2 0;
#X connect 6 1 1 0;
#X connect 6 2 7 0;
#X connect 7 0 8 0;
#X connect 8 0 9 0;
#X connect 9 0 23 0;
#X connect 9 0 24 0;
#X connect 9 0 30 0;
#X connect 9 0 37 0;
#X connect 10 0 4 0;
#X connect 10 0 17 0;
#X connect 10 0 32 0;
#X connect 11 0 6 0;
#X connect 12 0 16 0;
#X connect 12 0 14 0;
#X connect 12 0 29 0;
#X connect 13 0 23 0;
#X connect 13 0 37 0;
#X connect 14 0 15 0;
#X connect 15 0 24 0;
#X connect 16 0 13 0;
#X connect 17 0 21 1;
#X connect 18 1 21 0;
#X connect 19 0 18 0;
#X connect 25 0 27 0;
#X connect 26 0 25 0;
#X connect 27 0 3 2;
#X connect 27 0 35 2;
#X connect 28 0 30 0;
#X connect 29 0 28 0;
#X connect 32 0 31 1;
#X connect 33 1 31 0;
#X connect 34 1 36 0;
#X connect 35 0 34 0;
#X connect 38 0 35 1;
#X connect 39 0 38 0;
