#N canvas 12 69 1624 1011 12;
#X floatatom 117 84 5 0 0 0 - - -, f 5;
#X floatatom 223 86 5 0 0 0 - - -, f 5;
#X floatatom 328 86 5 0 0 0 - - -, f 5;
#X floatatom 433 86 5 0 0 0 - - -, f 5;
#X floatatom 545 87 5 0 0 0 - - -, f 5;
#X floatatom 668 83 5 0 0 0 - - -, f 5;
#X floatatom 767 83 5 0 0 0 - - -, f 5;
#X msg 117 132 freq \$1;
#X msg 223 132 amp \$1;
#X msg 328 132 vfr \$1;
#X msg 435 130 vib \$1;
#X msg 546 130 bw \$1;
#X msg 668 129 cf \$1;
#X msg 767 129 shift \$1;
#X floatatom 863 81 5 0 0 0 - - -, f 5;
#X msg 863 127 cfgliss \$1;
#X obj 116 17 bng 15 250 50 0 empty empty empty 17 7 0 10 -262144 -1
-1;
#X obj 107 628 ali.paf~;
#X floatatom 602 671 5 0 0 0 - - -, f 5;
#X obj 509 487 vradio 18 1 0 10 empty empty empty 0 -6 0 8 -262144
-1 -1 0;
#X msg 510 696 recall \$1;
#X obj 601 485 vradio 18 1 0 10 empty empty empty 0 -6 0 8 -262144
-1 -1 0;
#X obj 87 795 dac~ 1 2;
#X text 995 221 <-Click to start;
#X obj 977 225 tgl 15 0 empty empty empty 17 7 0 10 -262144 -1 -1 0
1;
#X msg 976 261 \; pd dsp \$1 \;;
#X obj 104 745 *~;
#X obj 284 721 line~;
#X obj 287 508 vsl 15 128 0 1 0 1 VCO_freq empty empty 0 -9 0 10 -262144
-1 -1 3200 1;
#X floatatom 287 648 5 0 0 0 - - -, f 5;
#X msg 288 687 \$1 20;
#X obj 645 645 print first;
#X obj 602 692 t b f;
#X obj 689 763 pack 1 1 1 1 1 1 1 1 1 1;
#X obj 689 831 prepend set;
#X obj 421 -23 route 0 1 2 3 4 5 6 7 8 9;
#X msg 385 821 write ali.paf~-help.pbank;
#X obj 647 877 pbank 10 8 ali.paf~-help.pbank;
#X text 586 460 store;
#X text 494 460 recall;
#X msg 983 737 interp 0 0.2 0.6 0.2;
#X text 992 758 interpolation between presets : output = 0 * preset1
+ 0.2 * preset2 + 0.6* preset3 + 0.2 * preset4;
#X obj 1094 365 vsl 15 128 0 1 0 1 VCO_freq empty empty 0 -9 0 10 -262144
-1 -1 7000 1;
#X obj 1116 366 vsl 15 128 0 1 0 1 VCO_freq empty empty 0 -9 0 10 -262144
-1 -1 2400 1;
#X obj 1140 366 vsl 15 128 0 1 0 1 VCO_freq empty empty 0 -9 0 10 -262144
-1 -1 0 1;
#X obj 1160 366 vsl 15 128 0 1 0 1 VCO_freq empty empty 0 -9 0 10 -262144
-1 -1 0 1;
#X obj 1180 366 vsl 15 128 0 1 0 1 VCO_freq empty empty 0 -9 0 10 -262144
-1 -1 0 1;
#X obj 1200 366 vsl 15 128 0 1 0 1 VCO_freq empty empty 0 -9 0 10 -262144
-1 -1 0 1;
#X obj 1220 366 vsl 15 128 0 1 0 1 VCO_freq empty empty 0 -9 0 10 -262144
-1 -1 0 1;
#X obj 1240 366 vsl 15 128 0 1 0 1 VCO_freq empty empty 0 -9 0 10 -262144
-1 -1 0 1;
#X obj 1259 368 vsl 15 128 0 1 0 1 VCO_freq empty empty 0 -9 0 10 -262144
-1 -1 0 1;
#X obj 1279 368 vsl 15 128 0 1 0 1 VCO_freq empty empty 0 -9 0 10 -262144
-1 -1 0 1;
#X obj 1022 551 bng 15 250 50 0 empty empty empty 17 7 0 10 -262144
-1 -1;
#X obj -3 235;
#X obj -3 235;
#X obj -3 235;
#X obj 1041 591 pack 0 0 0 0 0 0 0 0 0 0;
#X obj 1040 648 prepend interp;
#X obj 1234 123 mousestate;
#X msg 1234 78 poll;
#X floatatom 1236 187 5 0 0 0 - - -, f 5;
#X floatatom 1283 187 5 0 0 0 - - -, f 5;
#X floatatom 1333 187 5 0 0 0 - - -, f 5;
#X floatatom 1381 187 5 0 0 0 - - -, f 5;
#X connect 0 0 7 0;
#X connect 0 0 33 2;
#X connect 1 0 8 0;
#X connect 1 0 33 3;
#X connect 2 0 9 0;
#X connect 2 0 33 4;
#X connect 3 0 10 0;
#X connect 3 0 33 5;
#X connect 4 0 11 0;
#X connect 4 0 33 6;
#X connect 5 0 12 0;
#X connect 5 0 33 7;
#X connect 6 0 13 0;
#X connect 6 0 33 8;
#X connect 7 0 17 0;
#X connect 8 0 17 0;
#X connect 9 0 17 0;
#X connect 10 0 17 0;
#X connect 11 0 17 0;
#X connect 12 0 17 0;
#X connect 13 0 17 0;
#X connect 14 0 15 0;
#X connect 14 0 33 9;
#X connect 15 0 17 0;
#X connect 16 0 0 0;
#X connect 16 0 1 0;
#X connect 16 0 2 0;
#X connect 16 0 3 0;
#X connect 16 0 4 0;
#X connect 16 0 5 0;
#X connect 16 0 6 0;
#X connect 16 0 14 0;
#X connect 17 0 26 0;
#X connect 18 0 32 0;
#X connect 19 0 20 0;
#X connect 20 0 37 0;
#X connect 21 0 18 0;
#X connect 21 0 31 0;
#X connect 24 0 25 0;
#X connect 26 0 22 0;
#X connect 26 0 22 1;
#X connect 27 0 26 1;
#X connect 28 0 29 0;
#X connect 29 0 30 0;
#X connect 30 0 27 0;
#X connect 32 0 33 0;
#X connect 32 1 33 1;
#X connect 33 0 34 0;
#X connect 34 0 37 0;
#X connect 35 1 0 0;
#X connect 35 2 1 0;
#X connect 35 3 2 0;
#X connect 35 4 3 0;
#X connect 35 5 4 0;
#X connect 35 6 5 0;
#X connect 35 7 6 0;
#X connect 35 8 14 0;
#X connect 36 0 37 0;
#X connect 37 0 35 0;
#X connect 40 0 37 0;
#X connect 42 0 52 0;
#X connect 42 0 56 0;
#X connect 43 0 52 0;
#X connect 43 0 56 1;
#X connect 44 0 52 0;
#X connect 44 0 56 2;
#X connect 45 0 56 3;
#X connect 46 0 56 4;
#X connect 47 0 56 5;
#X connect 48 0 56 6;
#X connect 49 0 56 7;
#X connect 50 0 56 8;
#X connect 51 0 56 9;
#X connect 52 0 56 0;
#X connect 56 0 57 0;
#X connect 58 1 60 0;
#X connect 58 2 61 0;
#X connect 58 3 62 0;
#X connect 58 4 63 0;
#X connect 59 0 58 0;
