#N canvas 495 23 891 669 10;
#X obj 158 57 inlet;
#X obj 175 570 outlet;
#X obj 531 199 list;
#N canvas 0 22 450 300 rate-scale 0;
#X obj 106 192 list-iter 3;
#X obj 109 224 unpack 1 1 1;
#X obj 220 266 * 1;
#X obj 117 307 pack 1 1 1;
#X obj 195 408 list-group;
#X obj 215 340 list-iter 1;
#X obj 143 53 inlet;
#X obj 233 46 inlet;
#X obj 195 475 outlet;
#X obj 324 46 inlet;
#X connect 0 0 1 0;
#X connect 1 0 3 0;
#X connect 1 1 3 1;
#X connect 1 2 2 0;
#X connect 2 0 3 2;
#X connect 3 0 5 0;
#X connect 4 0 8 0;
#X connect 5 0 4 0;
#X connect 6 0 0 0;
#X connect 7 0 2 1;
#X connect 9 0 4 1;
#X restore 189 309 pd rate-scale;
#X obj 211 149 t b f;
#X obj 284 149 t b f;
#N canvas 0 23 563 589 frequency-scale 0;
#X obj 169 194 list-iter 3;
#X obj 172 226 unpack 1 1 1;
#X obj 283 268 * 1;
#X obj 180 309 pack 1 1 1;
#X obj 195 408 list-group;
#X obj 186 349 list-iter 1;
#X obj 143 53 inlet;
#X obj 275 46 inlet;
#X obj 195 475 outlet;
#X obj 383 140 inlet;
#X connect 0 0 1 0;
#X connect 1 0 2 0;
#X connect 1 1 3 1;
#X connect 1 2 3 2;
#X connect 2 0 3 0;
#X connect 3 0 5 0;
#X connect 4 0 8 0;
#X connect 5 0 4 0;
#X connect 6 0 0 0;
#X connect 7 0 2 1;
#X connect 9 0 4 1;
#X restore 196 371 pd frequency-scale;
#N canvas 785 68 569 528 gain-scale 0;
#X obj 169 194 list-iter 3;
#X obj 172 226 unpack 1 1 1;
#X obj 214 267 * 1;
#X obj 180 309 pack 1 1 1;
#X obj 195 408 list-group;
#X obj 202 134 t l l;
#X obj 278 342 list-iter 1;
#X obj 144 42 inlet;
#X obj 233 46 inlet;
#X obj 195 475 outlet;
#X obj 331 68 inlet;
#X connect 0 0 1 0;
#X connect 1 0 3 0;
#X connect 1 1 2 0;
#X connect 1 2 3 2;
#X connect 2 0 3 1;
#X connect 3 0 6 0;
#X connect 4 0 9 0;
#X connect 5 0 0 0;
#X connect 6 0 4 0;
#X connect 7 0 5 0;
#X connect 8 0 2 1;
#X connect 10 0 4 1;
#X restore 248 431 pd gain-scale;
#X obj 350 153 t b f;
#X obj 679 262 list length;
#X obj 211 87 route rate-scale frequency-scale gain-scale frequency-add
;
#X obj 409 150 t b f;
#N canvas 0 23 563 589 frequency-add 0;
#X obj 169 194 list-iter 3;
#X obj 172 226 unpack 1 1 1;
#X obj 180 309 pack 1 1 1;
#X obj 195 408 list-group;
#X obj 186 349 list-iter 1;
#X obj 143 53 inlet;
#X obj 275 46 inlet;
#X obj 195 475 outlet;
#X obj 383 140 inlet;
#X obj 170 274 + 0;
#X connect 0 0 1 0;
#X connect 1 0 9 0;
#X connect 1 1 2 1;
#X connect 1 2 2 2;
#X connect 2 0 4 0;
#X connect 3 0 7 0;
#X connect 4 0 3 0;
#X connect 5 0 0 0;
#X connect 6 0 9 1;
#X connect 8 0 3 1;
#X connect 9 0 2 0;
#X restore 296 507 pd frequency-add;
#X connect 0 0 10 0;
#X connect 2 0 3 0;
#X connect 3 0 6 0;
#X connect 4 0 2 0;
#X connect 4 1 3 1;
#X connect 5 0 2 0;
#X connect 5 1 6 1;
#X connect 6 0 7 0;
#X connect 7 0 12 0;
#X connect 8 0 2 0;
#X connect 8 1 7 1;
#X connect 9 0 3 2;
#X connect 9 0 6 2;
#X connect 9 0 7 2;
#X connect 9 0 12 2;
#X connect 10 0 4 0;
#X connect 10 1 5 0;
#X connect 10 2 8 0;
#X connect 10 3 11 0;
#X connect 10 4 9 0;
#X connect 10 4 2 1;
#X connect 10 4 2 0;
#X connect 11 1 12 1;
#X connect 12 0 1 0;
