#N canvas 526 31 765 593 10;
#X obj 88 174 inlet~;
#X obj 228 523 outlet~;
#X obj 230 455 ali.sample-player \$1;
#X obj 456 45 inlet;
#X msg 603 373 len \$1;
#X msg 473 283 autostop \$1 \, size \$1;
#X obj 501 147 bng 15 250 50 0 empty empty empty 17 7 0 10 -262144
-1 -1;
#X obj 87 282 ali.sample-recorder \$1;
#X obj 475 523 outlet;
#X msg 638 286 autostop 0;
#X obj 457 114 route record play len reset active;
#X obj 546 45 r looper\$2;
#X obj 376 347 spigot;
#X obj 427 308 tgl 15 0 empty empty empty 17 7 0 10 -262144 -1 -1 1
1;
#X obj 284 130 loadbang;
#X msg 295 172 1;
#X obj 646 159 r looper-active\$2;
#X obj 324 288 route record;
#X obj 324 317 sel 1;
#X msg 324 346 play 0;
#X connect 0 0 7 0;
#X connect 2 0 1 0;
#X connect 3 0 10 0;
#X connect 4 0 2 0;
#X connect 5 0 7 1;
#X connect 7 0 8 0;
#X connect 9 0 7 1;
#X connect 10 0 7 1;
#X connect 10 0 17 0;
#X connect 10 1 6 0;
#X connect 10 1 12 0;
#X connect 10 2 4 0;
#X connect 10 2 5 0;
#X connect 10 3 9 0;
#X connect 10 4 13 0;
#X connect 11 0 10 0;
#X connect 12 0 2 0;
#X connect 13 0 12 1;
#X connect 14 0 15 0;
#X connect 15 0 13 0;
#X connect 16 0 13 0;
#X connect 17 0 18 0;
#X connect 18 0 19 0;
#X connect 19 0 2 0;
