#N canvas 0 23 960 607 12;
#X floatatom 104 76 5 0 0 0 - - -, f 5;
#X floatatom 210 78 5 0 0 0 - - -, f 5;
#X floatatom 315 78 5 0 0 0 - - -, f 5;
#X floatatom 420 78 5 0 0 0 - - -, f 5;
#X floatatom 532 79 5 0 0 0 - - -, f 5;
#X floatatom 655 75 5 0 0 0 - - -, f 5;
#X floatatom 754 75 5 0 0 0 - - -, f 5;
#X msg 104 124 freq \$1;
#X msg 210 124 amp \$1;
#X msg 315 124 vfr \$1;
#X msg 422 122 vib \$1;
#X msg 533 122 bw \$1;
#X msg 655 121 cf \$1;
#X msg 754 121 shift \$1;
#X floatatom 850 73 5 0 0 0 - - -, f 5;
#X msg 850 119 cfgliss \$1;
#X obj 83 353 ali.paf~;
#X obj 63 520 dac~ 1 2;
#X text 511 319 <-Click to start;
#X obj 493 323 tgl 15 0 empty empty empty 17 7 0 10 -262144 -1 -1 0
1;
#X msg 492 359 \; pd dsp \$1 \;;
#X obj 80 470 *~;
#X obj 260 446 line~;
#X obj 263 233 vsl 15 128 0 1 0 1 VCO_freq empty empty 0 -9 0 10 -262144
-1 -1 2100 1;
#X floatatom 263 373 5 0 0 0 - - -, f 5;
#X msg 264 412 \$1 20;
#X connect 0 0 7 0;
#X connect 1 0 8 0;
#X connect 2 0 9 0;
#X connect 3 0 10 0;
#X connect 4 0 11 0;
#X connect 5 0 12 0;
#X connect 6 0 13 0;
#X connect 7 0 16 0;
#X connect 8 0 16 0;
#X connect 9 0 16 0;
#X connect 10 0 16 0;
#X connect 11 0 16 0;
#X connect 12 0 16 0;
#X connect 13 0 16 0;
#X connect 14 0 15 0;
#X connect 15 0 16 0;
#X connect 16 0 21 0;
#X connect 19 0 20 0;
#X connect 21 0 17 0;
#X connect 21 0 17 1;
#X connect 22 0 21 1;
#X connect 23 0 24 0;
#X connect 24 0 25 0;
#X connect 25 0 22 0;
