#N canvas 807 191 687 559 10;
#X obj 108 40 adc~;
#X obj 113 109 env~;
#X obj 110 327 ali.plot;
#X text 245 243 arg 1: smoothing coefficient for increasing numbers
\; arg 2: smoothing coefficient for decreasing number;
#X obj 111 195 / 200;
#X floatatom 210 151 5 0 0 0 - - -, f 5;
#X obj 101 264 ali.slide 0.1 0.5;
#X connect 0 0 1 0;
#X connect 0 1 1 0;
#X connect 1 0 4 0;
#X connect 4 0 5 0;
#X connect 4 0 6 0;
#X connect 6 0 2 0;
