#N canvas 439 63 696 463 10;
#X obj 214 277 line~;
#X obj 324 23 inlet;
#X obj 250 331 outlet~;
#X obj 331 332 outlet;
#X obj 394 332 outlet;
#X obj 354 155 list prepend;
#X obj 353 124 del 20;
#X obj 324 67 t b f f;
#X obj 437 21 inlet;
#X obj 209 166 pack 1 20;
#X obj 514 120 float \$1;
#X obj 512 23 loadbang;
#X obj 515 152 route 0;
#X obj 353 263 route 1 0;
#X connect 0 0 2 0;
#X connect 1 0 7 0;
#X connect 5 0 13 0;
#X connect 6 0 5 0;
#X connect 7 0 6 0;
#X connect 7 1 9 0;
#X connect 7 2 5 1;
#X connect 8 0 6 1;
#X connect 8 0 9 1;
#X connect 9 0 0 0;
#X connect 10 0 12 0;
#X connect 11 0 10 0;
#X connect 12 1 6 1;
#X connect 12 1 9 1;
#X connect 13 0 3 0;
#X connect 13 1 4 0;
