#N canvas 0 22 703 673 10;
#X obj 415 252 / 127;
#X msg 419 318 \$1 10;
#X obj 378 380 line~;
#N canvas 0 22 450 300 mult 0;
#X obj 205 143 *~;
#X obj 177 69 inlet~;
#X obj 248 71 inlet~;
#X obj 199 218 outlet~;
#X connect 0 0 3 0;
#X connect 1 0 0 0;
#X connect 2 0 0 1;
#X restore 291 424 pd mult;
#X obj 252 227 inlet~;
#X obj 375 169 inlet;
#X obj 280 513 outlet~;
#X connect 0 0 1 0;
#X connect 1 0 2 0;
#X connect 2 0 3 1;
#X connect 3 0 6 0;
#X connect 4 0 3 0;
#X connect 5 0 0 0;
