#N canvas 39 183 1407 1081 10;
#X obj 277 189 inlet;
#X obj 707 185 inlet;
#X obj 504 189 inlet;
#X floatatom 278 253 5 0 0 0 - - -, f 5;
#X obj 484 463 list split 3;
#X floatatom 503 282 5 0 0 0 - - -, f 5;
#X obj 546 496 list split 1;
#X obj 482 343 - 1;
#X obj 566 532 list prepend read;
#X obj 566 579 route list;
#X obj 418 721 list append;
#X obj 274 443 bng 15 250 50 0 empty empty empty 17 7 0 10 -262144
-1 -1;
#X obj 283 798 list append;
#X obj 296 523 ali.uzi;
#X obj 421 760 t l l;
#X obj 290 594 expr ($f1)*2-1;
#X text 313 190 number of resonances;
#X text 541 284 model number \, selected from list above;
#X obj 286 932 outlet;
#X obj 274 395 t b b f;
#X text 745 186 list of resonance collection names;
#X obj 484 415 list;
#X obj 477 309 float;
#X obj 274 282 t f b b;
#X obj 565 625 text define -k \$0res-model;
#A set;
#X obj 417 626 text get \$0res-model;
#X connect 0 0 3 0;
#X connect 1 0 21 1;
#X connect 2 0 5 0;
#X connect 3 0 23 0;
#X connect 4 1 6 0;
#X connect 5 0 22 1;
#X connect 6 0 8 0;
#X connect 7 0 4 1;
#X connect 8 0 9 0;
#X connect 9 0 24 0;
#X connect 10 0 14 0;
#X connect 11 0 13 0;
#X connect 11 0 12 0;
#X connect 12 0 18 0;
#X connect 13 2 15 0;
#X connect 14 0 12 1;
#X connect 14 1 10 1;
#X connect 15 0 25 0;
#X connect 19 0 11 0;
#X connect 19 1 10 1;
#X connect 19 2 13 1;
#X connect 21 0 4 0;
#X connect 22 0 7 0;
#X connect 23 0 19 0;
#X connect 23 1 21 0;
#X connect 23 2 22 0;
#X connect 25 0 10 0;
