#N canvas 521 57 1067 673 12;
#X obj 82 48 adc~;
#X obj 82 75 +~;
#X obj 81 308 vsl 15 128 0 127 0 0 empty empty empty 0 -9 0 10 -262144
-1 -1 1 1;
#N canvas 720 411 520 411 env 0;
#X obj 117 169 *~;
#X obj 117 223 snapshot~;
#X floatatom 117 261 5 0 0 0 - - -;
#X obj 165 168 metro 10;
#X obj 165 117 tgl 15 0 empty empty empty 17 7 0 10 -262144 -1 -1 1
1;
#X obj 193 11 loadbang;
#X msg 192 59 1;
#X obj 91 115 inlet~;
#X obj 159 356 outlet;
#X obj 117 296 * 200;
#X connect 0 0 1 0;
#X connect 1 0 2 0;
#X connect 2 0 9 0;
#X connect 3 0 1 0;
#X connect 4 0 3 0;
#X connect 5 0 6 0;
#X connect 6 0 4 0;
#X connect 7 0 0 0;
#X connect 7 0 0 1;
#X connect 9 0 8 0;
#X restore 81 204 pd env;
#X obj 233 202 ali.sample-recorder my-buffer;
#X msg 433 131 record \$1;
#X obj 433 91 tgl 15 0 empty empty empty 17 7 0 10 -262144 -1 -1 0
1;
#X floatatom 231 282 5 0 0 0 - - -;
#X obj 541 385 ali.sampler;
#X text 329 481 play first 500 msec of "voice-sample" at 0.5 gain and
normal playspeed;
#X obj 532 447 dac~;
#X text 280 283 recording length in msec;
#X msg 540 335 play my-buffer 0 0 0.5 1 0;
#X text 742 336 play the complete recording;
#X connect 0 0 1 0;
#X connect 0 1 1 1;
#X connect 1 0 3 0;
#X connect 1 0 4 0;
#X connect 3 0 2 0;
#X connect 4 0 7 0;
#X connect 5 0 4 1;
#X connect 6 0 5 0;
#X connect 8 0 10 0;
#X connect 8 0 10 1;
#X connect 12 0 8 0;
