#N canvas 0 23 920 548 10;
#X floatatom 422 337 5 0 0 0 - - -, f 5;
#X obj 343 393 ali.pitchshift;
#X msg 424 360 transpose \$1;
#X obj 424 285 int;
#X obj 424 309 * 12;
#N canvas 0 22 341 494 octaveLabel 0;
#X obj 80 225 tickler.ftosym;
#X obj 80 401 send toGUI;
#X obj 80 197 abs;
#X obj 21 199 > 0;
#X obj 14 227 sel 1;
#X obj 181 224 != 0;
#X msg 14 254 +;
#X msg 46 254 -;
#X obj 79 303 list prepend;
#X obj 79 328 spigot 1;
#X obj 138 328 spigot 0;
#X obj 212 224 == 0;
#X obj 80 154 t f f f f;
#X obj 80 117 int;
#X obj 80 16 r transpose;
#X obj 80 71 ali.scale 0 1 -2 2;
#X obj 80 365 list prepend /trans.octaveLabel;
#X connect 0 0 8 0;
#X connect 0 0 10 0;
#X connect 2 0 0 0;
#X connect 3 0 4 0;
#X connect 4 0 6 0;
#X connect 4 1 7 0;
#X connect 5 0 9 1;
#X connect 6 0 8 1;
#X connect 7 0 8 1;
#X connect 8 0 9 0;
#X connect 9 0 16 0;
#X connect 10 0 16 0;
#X connect 11 0 10 1;
#X connect 12 0 2 0;
#X connect 12 1 3 0;
#X connect 12 2 5 0;
#X connect 12 3 11 0;
#X connect 13 0 12 0;
#X connect 14 0 15 0;
#X connect 15 0 13 0;
#X connect 16 0 1 0;
#X restore 552 360 pd octaveLabel;
#X obj 424 53 tickler.param tickler-0 0 transpose -2 2;
#X obj 270 250 adc~;
#X obj 315 493 dac~;
#X text 364 466 feedback!!!;
#X connect 0 0 2 0;
#X connect 1 0 8 0;
#X connect 1 0 8 1;
#X connect 2 0 1 1;
#X connect 3 0 4 0;
#X connect 4 0 0 0;
#X connect 6 0 3 0;
#X connect 7 0 1 0;
