#N canvas 0 22 983 714 10;
#X obj 130 49 inlet;
#X obj 217 49 inlet;
#X floatatom 331 375 5 0 0 0 - - -, f 5;
#X obj 200 345 +;
#X msg 151 312 1;
#X msg 265 307 0;
#X obj 277 511 spigot;
#X obj 134 507 spigot;
#X obj 181 468 == 0;
#X obj 177 211 t b b;
#X obj 178 158 bng 15 250 50 0 empty empty empty 17 7 0 10 -262144
-1 -1;
#X obj 310 462 <;
#X obj 191 630 outlet;
#X obj 352 252 sel 0;
#X obj 220 389 t f f;
#X obj 250 553 t b f;
#X obj 358 173 f \$1;
#X obj 358 119 loadbang;
#X obj 102 627 outlet;
#X obj 35 626 outlet;
#X obj 47 576 bng 15 250 50 0 empty empty empty 17 7 0 10 -262144 -1
-1;
#X obj 182 550 sel 0;
#X connect 0 0 10 0;
#X connect 1 0 2 0;
#X connect 2 0 11 1;
#X connect 3 0 14 0;
#X connect 4 0 3 0;
#X connect 5 0 3 1;
#X connect 6 0 15 0;
#X connect 7 0 12 0;
#X connect 7 0 20 0;
#X connect 8 0 7 1;
#X connect 9 0 4 0;
#X connect 9 1 5 0;
#X connect 10 0 9 0;
#X connect 11 0 6 1;
#X connect 11 0 8 0;
#X connect 11 0 21 0;
#X connect 13 1 2 0;
#X connect 14 0 6 0;
#X connect 14 0 7 0;
#X connect 14 1 11 0;
#X connect 15 0 4 0;
#X connect 15 1 3 1;
#X connect 16 0 13 0;
#X connect 17 0 16 0;
#X connect 20 0 19 0;
#X connect 21 0 18 0;
