#N canvas 0 22 208 300 10;
#X obj 52 69 int;
#X obj 52 175 list-rot;
#X obj 52 199 unpack 1;
#X obj 52 111 t b f;
#X obj 52 43 inlet;
#X obj 52 252 outlet;
#X obj 52 149 list;
#X obj 96 111 r scale.out;
#X obj 135 179 bng 15 250 50 0 empty empty empty 17 7 0 10 -262144
-1 -1;
#X connect 0 0 3 0;
#X connect 1 0 2 0;
#X connect 2 0 5 0;
#X connect 3 0 6 0;
#X connect 3 1 1 1;
#X connect 4 0 0 0;
#X connect 6 0 1 0;
#X connect 7 0 6 1;
#X connect 7 0 8 0;
