#N canvas 176 172 1231 863 10;
#X obj 185 442 mtof;
#X obj 185 487 osc~;
#X obj 353 444 mtof;
#X obj 353 489 osc~;
#X obj 508 439 mtof;
#X obj 508 484 osc~;
#X obj 835 683 tickler.pbank 4 12 tickler-this.pbank;
#X floatatom 577 388 5 0 0 0 - - -, f 5;
#X text 788 242 arg4: scale to min (def 0);
#X text 787 263 arg5: scale to max (def 127);
#X text 786 187 arg1: name of this param (start with "tickler-0");
#X text 786 203 arg2: number of this param (starts with 0;
#X text 788 221 arg3: display name of this param (eg "freq");
#X text 1073 685 arg1: number of rows (params);
#X text 1073 706 arg2: number of columns (presets);
#X text 1074 726 arg3: preset file name;
#X obj 1191 141 tickler.in;
#X obj 327 614 tickler.out;
#N canvas 800 290 949 489 freqs 0;
#X obj 376 183 route /freq1 /freq2 /freq3;
#X obj 370 101 inlet;
#X obj 375 295 s freq1;
#X text 548 182 assum 0 to 1 range and let tickler.param scale it;
#X obj 427 296 s freq2;
#X obj 480 297 s freq3;
#X obj 561 334 outlet;
#X connect 0 0 2 0;
#X connect 0 1 4 0;
#X connect 0 2 5 0;
#X connect 0 3 6 0;
#X connect 1 0 0 0;
#X restore 1473 378 pd freqs;
#X text 783 145 <<<<< these are the agruments for the abstraction:
;
#X text 1113 379 this sends the incoming GUI messages to tickler.param
>>>>;
#X obj 555 145 tickler.param tickler-2 2 freq3 70 90;
#X text 1078 757 <<< look inside for parameter space interpolation
;
#X obj 78 146 tickler.param tickler-0 0 freq1 50 70;
#X obj 321 145 tickler.param tickler-1 1 freq2 60 80;
#X msg 863 582 interp \$1 \$2;
#X obj 836 476 hsl 128 15 0 127 0 0 empty empty empty -2 -8 0 10 -262144
-1 -1 700 1;
#X obj 900 426 vsl 15 128 0 127 0 0 empty empty empty 0 -9 0 10 -262144
-1 -1 10900 1;
#X obj 1032 520 / 127;
#X obj 1107 527 / 127;
#X obj 1044 568 pack 1 1;
#X obj 1005 557 bng 15 250 50 0 empty empty empty 17 7 0 10 -262144
-1 -1;
#X connect 0 0 1 0;
#X connect 1 0 17 0;
#X connect 2 0 3 0;
#X connect 3 0 17 0;
#X connect 3 0 17 1;
#X connect 4 0 5 0;
#X connect 5 0 17 1;
#X connect 16 2 18 0;
#X connect 21 0 4 0;
#X connect 21 0 7 0;
#X connect 23 0 0 0;
#X connect 24 0 2 0;
#X connect 25 0 6 0;
#X connect 26 0 29 0;
#X connect 27 0 28 0;
#X connect 28 0 30 1;
#X connect 28 0 31 0;
#X connect 29 0 30 0;
#X connect 30 0 25 0;
#X connect 31 0 30 0;
