#N canvas 259 156 530 272 10;
#X obj 87 160 snapshot~;
#X obj 86 110 tgl 15 0 empty empty empty 17 7 0 10 -262144 -1 -1 1
1;
#X obj 86 131 metro 100;
#X obj 22 108 osc~ 0.3;
#X obj 86 84 loadbang;
#X obj 40 195 expr ((($f1+1)*0.5)*$f2) + $f3;
#X obj 68 51 inlet;
#X obj 202 49 inlet;
#X obj 242 49 inlet;
#X obj 40 230 outlet;
#X obj 372 31 loadbang;
#X obj 372 67 f \$1;
#X obj 404 67 f \$2;
#X obj 435 67 f \$3;
#X connect 0 0 5 0;
#X connect 1 0 2 0;
#X connect 2 0 0 0;
#X connect 3 0 0 0;
#X connect 4 0 1 0;
#X connect 5 0 9 0;
#X connect 6 0 3 1;
#X connect 7 0 5 1;
#X connect 8 0 5 2;
#X connect 10 0 11 0;
#X connect 10 0 12 0;
#X connect 10 0 13 0;
#X connect 11 0 3 1;
#X connect 12 0 5 1;
#X connect 13 0 5 2;
