#N canvas 212 23 1194 778 10;
#X msg 294 413 recall \$1;
#X text 150 297 recall;
#X text 153 264 store;
#X msg 161 422 store \$1;
#X obj 191 265 hradio 15 1 0 8 empty empty empty 0 -6 0 8 -262144 -1
-1 9;
#X obj 149 612 r tickler-pbank;
#X obj 221 699 pbank \$1 \$2 \$3 tickler;
#X text 901 89 arg1: number of rows (params);
#X text 901 110 arg2: number of columns (presets);
#X text 902 130 arg3: preset file name;
#X obj 191 12 inlet;
#X obj 235 13 r to-tickler.pbank;
#X obj 548 74 receive fromGUI;
#X obj 549 120 route list;
#X obj 570 328 unpack 1 1 1;
#X obj 615 375 spigot;
#X msg 632 433 store \$1;
#X obj 667 328 unpack 1 1 1;
#X obj 699 377 spigot;
#X msg 716 435 recall \$1;
#X obj 192 295 hradio 15 1 0 8 empty empty empty 0 -6 0 8 -262144 -1
-1 6;
#X msg 266 207 set \$1;
#X msg 210 206 set \$1;
#X obj 175 698 outlet;
#X obj 164 481 s tickler-pbank;
#X obj 563 282 route /store /recall /interpspace;
#X obj 791 351 unpack 1 1;
#X floatatom 250 320 5 0 0 0 - - -, f 5;
#X floatatom 294 321 5 0 0 0 - - -, f 5;
#N canvas 402 151 945 739 interpol 0;
#X obj 11 26 inlet;
#X obj 27 427 outlet;
#X msg 28 357 interp \$1 \$2 \$3 \$4 \$5 \$6 \$7 \$8 \$9 \$10;
#N canvas 126 75 1774 592 gaussians 0;
#X obj 539 42 inlet;
#X obj 575 523 pack f f f f f f f f f f;
#X floatatom 846 41 5 0 0 0 - - -, f 5;
#X floatatom 907 41 5 0 0 0 - - -, f 5;
#X obj 575 545 outlet;
#X obj 41 259 ali.gaussian 0 0 5 0.3 0.3;
#X obj 231 258 ali.gaussian 0.5 0 5 0.3 0.3;
#X obj 365 296 ali.gaussian 0 0.5 5 0.3 0.3;
#X obj 499 327 ali.gaussian -0.5 0 5 0.3 0.3;
#X obj 640 354 ali.gaussian 0 -0.5 5 0.3 0.3;
#X obj 786 384 ali.gaussian 1 -1 5 0.3 0.3;
#X obj 917 418 ali.gaussian 1 1 5 0.3 0.3;
#X obj 1044 444 ali.gaussian -1 1 5 0.3 0.3;
#X obj 1173 468 ali.gaussian -1 -1 5 0.3 0.3;
#X obj 1311 491 ali.gaussian 0 -1 5 0.3 0.3;
#X connect 0 0 5 0;
#X connect 0 0 6 0;
#X connect 0 0 7 0;
#X connect 0 0 8 0;
#X connect 0 0 9 0;
#X connect 0 0 10 0;
#X connect 0 0 11 0;
#X connect 0 0 12 0;
#X connect 0 0 13 0;
#X connect 0 0 14 0;
#X connect 1 0 4 0;
#X connect 2 0 5 3;
#X connect 2 0 6 3;
#X connect 2 0 7 3;
#X connect 2 0 8 3;
#X connect 2 0 9 3;
#X connect 2 0 10 3;
#X connect 2 0 11 3;
#X connect 2 0 12 3;
#X connect 2 0 13 3;
#X connect 2 0 14 3;
#X connect 3 0 5 4;
#X connect 3 0 5 5;
#X connect 3 0 6 4;
#X connect 3 0 6 5;
#X connect 3 0 7 4;
#X connect 3 0 7 5;
#X connect 3 0 8 4;
#X connect 3 0 8 5;
#X connect 3 0 9 4;
#X connect 3 0 9 5;
#X connect 3 0 10 4;
#X connect 3 0 10 5;
#X connect 3 0 11 5;
#X connect 3 0 11 4;
#X connect 3 0 12 4;
#X connect 3 0 12 5;
#X connect 3 0 13 4;
#X connect 3 0 13 5;
#X connect 3 0 14 5;
#X connect 3 0 14 4;
#X connect 5 0 1 0;
#X connect 6 0 1 1;
#X connect 7 0 1 2;
#X connect 8 0 1 3;
#X connect 9 0 1 4;
#X connect 10 0 1 5;
#X connect 11 0 1 6;
#X connect 12 0 1 7;
#X connect 13 0 1 8;
#X connect 14 0 1 9;
#X restore 44 224 pd gaussians;
#X obj 237 495 unpack 1 1 1 1 1 1 1 1 1 1;
#X obj 237 540 vsl 15 128 0 127 0 0 empty empty empty 0 -9 0 10 -262144
-1 -1 0 1;
#X obj 256 540 vsl 15 128 0 127 0 0 empty empty empty 0 -9 0 10 -262144
-1 -1 0 1;
#X obj 274 539 vsl 15 128 0 127 0 0 empty empty empty 0 -9 0 10 -262144
-1 -1 0 1;
#X obj 296 542 vsl 15 128 0 127 0 0 empty empty empty 0 -9 0 10 -262144
-1 -1 0 1;
#X obj 317 544 vsl 15 128 0 127 0 0 empty empty empty 0 -9 0 10 -262144
-1 -1 0 1;
#X obj 340 544 vsl 15 128 0 127 0 0 empty empty empty 0 -9 0 10 -262144
-1 -1 0 1;
#X obj 364 543 vsl 15 128 0 127 0 0 empty empty empty 0 -9 0 10 -262144
-1 -1 0 1;
#X obj 391 544 vsl 15 128 0 127 0 0 empty empty empty 0 -9 0 10 -262144
-1 -1 0 1;
#X obj 412 546 vsl 15 128 0 127 0 0 empty empty empty 0 -9 0 10 -262144
-1 -1 0 1;
#X obj 437 544 vsl 15 128 0 127 0 0 empty empty empty 0 -9 0 10 -262144
-1 -1 0 1;
#X msg 93 55 set \$1 \$2;
#X msg 103 118 0.567969 0.0768554;
#N canvas 1202 318 648 534 list-normalize 0;
#X obj 118 7 inlet;
#X obj 118 97 t l l;
#X obj 191 156 list-accum;
#X obj 100 303 list-math /;
#X obj 124 380 outlet;
#X connect 0 0 1 0;
#X connect 1 0 3 0;
#X connect 1 1 2 0;
#X connect 2 0 3 1;
#X connect 3 0 4 0;
#X restore 42 281 pd list-normalize;
#X obj 320 444 list-math *;
#X msg 436 420 127;
#X obj 437 386 loadbang;
#X obj 310 368 spigot;
#X obj 359 310 tgl 15 0 empty empty empty 17 7 0 10 -262144 -1 -1 0
1;
#X connect 0 0 3 0;
#X connect 0 0 15 0;
#X connect 2 0 1 0;
#X connect 3 0 17 0;
#X connect 4 0 5 0;
#X connect 4 1 6 0;
#X connect 4 2 7 0;
#X connect 4 3 8 0;
#X connect 4 4 9 0;
#X connect 4 5 10 0;
#X connect 4 6 11 0;
#X connect 4 7 12 0;
#X connect 4 8 13 0;
#X connect 4 9 14 0;
#X connect 15 0 16 0;
#X connect 17 0 2 0;
#X connect 17 0 21 0;
#X connect 18 0 4 0;
#X connect 19 0 18 1;
#X connect 20 0 19 0;
#X connect 21 0 18 0;
#X connect 22 0 21 1;
#X restore 615 609 pd interpol;
#X obj 561 499 ali.scale 0 1 -1 1;
#X obj 703 500 ali.scale 0 1 -1 1;
#X obj 615 567 pack 1 1;
#X obj 614 667 s tickler-pbank;
#X text 155 320 space interp;
#X obj 192 137 route store recall interpspace;
#X connect 0 0 24 0;
#X connect 3 0 24 0;
#X connect 4 0 3 0;
#X connect 5 0 6 0;
#X connect 5 0 23 0;
#X connect 10 0 35 0;
#X connect 11 0 35 0;
#X connect 12 0 13 0;
#X connect 13 0 25 0;
#X connect 14 0 15 0;
#X connect 14 2 15 1;
#X connect 15 0 16 0;
#X connect 16 0 35 0;
#X connect 17 0 18 0;
#X connect 17 2 18 1;
#X connect 18 0 19 0;
#X connect 19 0 35 0;
#X connect 20 0 0 0;
#X connect 21 0 20 0;
#X connect 22 0 4 0;
#X connect 25 0 14 0;
#X connect 25 1 17 0;
#X connect 25 2 26 0;
#X connect 26 0 27 0;
#X connect 26 1 28 0;
#X connect 27 0 30 0;
#X connect 28 0 31 0;
#X connect 29 0 33 0;
#X connect 30 0 32 0;
#X connect 31 0 32 1;
#X connect 32 0 29 0;
#X connect 35 0 3 0;
#X connect 35 0 22 0;
#X connect 35 1 21 0;
#X connect 35 1 0 0;
#X connect 35 2 26 0;
#X connect 35 3 24 0;
#X coords 0 -1 1 1 200 100 1 150 240;
